<svg width="30" height="30" viewBox="0 0 30 30" fill="none" xmlns="http://www.w3.org/2000/svg">
<path d="M14.1667 17.5129L11.2242 14.5704C11.0683 14.4146 10.8825 14.3367 10.6667 14.3367C10.4508 14.3367 10.265 14.4146 10.1092 14.5704C9.95306 14.7265 9.875 14.9196 9.875 15.1496C9.875 15.3796 9.95306 15.569 10.1092 15.7179L14.0896 19.6987C14.359 19.9679 14.6732 20.1025 15.0321 20.1025C15.391 20.1025 15.705 19.9679 15.9742 19.6987L19.955 15.7179C20.1111 15.569 20.1892 15.3796 20.1892 15.1496C20.1892 14.9196 20.1111 14.7265 19.955 14.5704C19.7992 14.4146 19.6063 14.3367 19.3763 14.3367C19.146 14.3367 18.9564 14.4146 18.8075 14.5704L15.8654 17.5129V10.1604C15.8654 9.9243 15.7854 9.72639 15.6254 9.56667C15.4654 9.40694 15.2672 9.32708 15.0308 9.32708C14.7944 9.32708 14.5914 9.40694 14.4217 9.56667C14.2517 9.72639 14.1667 9.9243 14.1667 10.1604V17.5129ZM15.0054 30C12.9313 30 10.9811 29.6064 9.155 28.8192C7.32917 28.0319 5.74083 26.9636 4.39 25.6142C3.03917 24.2647 1.96986 22.6778 1.18208 20.8533C0.394028 19.0292 0 17.0799 0 15.0054C0 12.9313 0.393611 10.9811 1.18083 9.155C1.96806 7.32917 3.03639 5.74083 4.38583 4.39C5.73528 3.03917 7.32222 1.96986 9.14667 1.18208C10.9708 0.394028 12.9201 0 14.9946 0C17.0688 0 19.0189 0.393612 20.845 1.18083C22.6708 1.96806 24.2592 3.03639 25.61 4.38583C26.9608 5.73528 28.0301 7.32222 28.8179 9.14667C29.606 10.9708 30 12.9201 30 14.9946C30 17.0688 29.6064 19.0189 28.8192 20.845C28.0319 22.6708 26.9636 24.2592 25.6142 25.61C24.2647 26.9608 22.6778 28.0301 20.8533 28.8179C19.0292 29.606 17.0799 30 15.0054 30ZM15 28.3333C18.7222 28.3333 21.875 27.0417 24.4583 24.4583C27.0417 21.875 28.3333 18.7222 28.3333 15C28.3333 11.2778 27.0417 8.125 24.4583 5.54167C21.875 2.95833 18.7222 1.66667 15 1.66667C11.2778 1.66667 8.125 2.95833 5.54167 5.54167C2.95833 8.125 1.66667 11.2778 1.66667 15C1.66667 18.7222 2.95833 21.875 5.54167 24.4583C8.125 27.0417 11.2778 28.3333 15 28.3333Z" fill="#EEDBBF"/>
</svg>
