<svg width="10" height="10" viewBox="0 0 10 10" fill="none" xmlns="http://www.w3.org/2000/svg">
<path d="M8.38711 1.35197L0.656094 9.06755C0.582073 9.14171 0.491229 9.17621 0.383562 9.17106C0.276028 9.16605 0.185184 9.12647 0.111031 9.05231C0.0370104 8.97829 0 8.89002 0 8.7875C0 8.68498 0.0370104 8.59671 0.111031 8.52269L7.82681 0.791667H0.866281C0.754129 0.791667 0.660118 0.753667 0.58425 0.677667C0.508382 0.601667 0.470448 0.507524 0.470448 0.395239C0.470448 0.282954 0.508382 0.18901 0.58425 0.113406C0.660118 0.0378017 0.754129 0 0.866281 0H8.53931C8.72047 0 8.87234 0.0612878 8.99492 0.183864C9.11749 0.306441 9.17878 0.458309 9.17878 0.639469V8.3125C9.17878 8.42465 9.14078 8.51866 9.06478 8.59453C8.98878 8.6704 8.89464 8.70833 8.78235 8.70833C8.67007 8.70833 8.57613 8.6704 8.50052 8.59453C8.42492 8.51866 8.38711 8.42465 8.38711 8.3125V1.35197Z" fill="#512FEB"/>
</svg>
