<svg width="31" height="21" viewBox="0 0 31 21" fill="none" xmlns="http://www.w3.org/2000/svg">
<path fill-rule="evenodd" clip-rule="evenodd" d="M20.1205 3.3875H28.0069V1.05625H20.1205V3.3875ZM24.0079 8.06953C22.2487 8.06953 20.9126 9.19459 20.7839 11.2734H27.0955C26.6677 8.80625 25.606 8.06953 24.0079 8.06953ZM24.2544 17.7117C25.8788 17.7117 27.0707 16.6525 27.3141 15.7602H30.7303C29.7538 18.9875 27.7372 20.8 24.1164 20.8C19.4959 20.8 16.9027 17.4077 16.9027 12.9062C16.9027 2.30547 31.7207 1.92541 30.9767 13.8961H20.7839C20.8831 16.3269 21.855 17.7117 24.2544 17.7117ZM8.8815 17.2453C10.7461 17.2453 12.0512 16.5049 12.0512 14.507C12.0512 12.4348 10.898 11.5359 8.9621 11.5359H4.2904V17.2453H8.8815ZM8.63505 8.41953C10.1866 8.41953 11.2576 7.67401 11.2576 5.94219C11.2576 4.11784 10.0114 3.55469 8.308 3.55469H4.2904V8.41953H8.63505ZM9.1822 0C12.8572 0 15.4116 1.25392 15.4116 5.15547C15.4116 7.08724 14.6599 8.52686 12.7611 9.49687C15.1915 10.2422 16.3416 12.199 16.3416 14.7703C16.3416 18.852 13.206 20.8 9.455 20.8H0V0H9.1822Z" fill="#AB9D88" fill-opacity="0.81"/>
</svg>
