<svg width="31" height="31" viewBox="0 0 31 31" fill="none" xmlns="http://www.w3.org/2000/svg">
<path fill-rule="evenodd" clip-rule="evenodd" d="M15.5 23.25C19.7802 23.25 23.25 19.7802 23.25 15.5C23.25 11.2198 19.7802 7.75 15.5 7.75C11.2198 7.75 7.75 11.2198 7.75 15.5C7.75 19.7802 11.2198 23.25 15.5 23.25ZM15.5 20.6667C18.3534 20.6667 20.6667 18.3534 20.6667 15.5C20.6667 12.6465 18.3534 10.3333 15.5 10.3333C12.6465 10.3333 10.3333 12.6465 10.3333 15.5C10.3333 18.3534 12.6465 20.6667 15.5 20.6667Z" fill="#AB9D88" fill-opacity="0.81"/>
<path d="M23.25 6.4585C22.5366 6.4585 21.9583 7.0368 21.9583 7.75016C21.9583 8.46352 22.5366 9.04183 23.25 9.04183C23.9634 9.04183 24.5417 8.46352 24.5417 7.75016C24.5417 7.0368 23.9634 6.4585 23.25 6.4585Z" fill="#AB9D88" fill-opacity="0.81"/>
<path fill-rule="evenodd" clip-rule="evenodd" d="M2.13638 5.52308C1.29169 7.18089 1.29169 9.3511 1.29169 13.6915V17.3082C1.29169 21.6486 1.29169 23.8188 2.13638 25.4765C2.8794 26.9348 4.065 28.1204 5.52326 28.8634C7.18108 29.7082 9.35128 29.7082 13.6917 29.7082H17.3083C21.6487 29.7082 23.819 29.7082 25.4767 28.8634C26.935 28.1204 28.1206 26.9348 28.8636 25.4765C29.7083 23.8188 29.7083 21.6486 29.7083 17.3082V13.6915C29.7083 9.3511 29.7083 7.18089 28.8636 5.52308C28.1206 4.06481 26.935 2.87922 25.4767 2.1362C23.819 1.2915 21.6487 1.2915 17.3083 1.2915H13.6917C9.35128 1.2915 7.18108 1.2915 5.52326 2.1362C4.065 2.87922 2.8794 4.06481 2.13638 5.52308ZM17.3083 3.87484H13.6917C11.4789 3.87484 9.97459 3.87685 8.81187 3.97184C7.67929 4.06438 7.1001 4.2321 6.69607 4.43796C5.7239 4.93332 4.9335 5.72371 4.43815 6.69589C4.23228 7.09992 4.06456 7.6791 3.97202 8.81169C3.87703 9.97441 3.87502 11.4787 3.87502 13.6915V17.3082C3.87502 19.521 3.87703 21.0252 3.97202 22.188C4.06456 23.3206 4.23228 23.8998 4.43815 24.3038C4.9335 25.2759 5.7239 26.0663 6.69607 26.5617C7.1001 26.7676 7.67929 26.9353 8.81187 27.0278C9.97459 27.1228 11.4789 27.1248 13.6917 27.1248H17.3083C19.5212 27.1248 21.0254 27.1228 22.1881 27.0278C23.3208 26.9353 23.9 26.7676 24.304 26.5617C25.2761 26.0663 26.0665 25.2759 26.5618 24.3038C26.7677 23.8998 26.9355 23.3206 27.028 22.188C27.1229 21.0252 27.125 19.521 27.125 17.3082V13.6915C27.125 11.4787 27.1229 9.97441 27.028 8.81169C26.9355 7.6791 26.7677 7.09992 26.5618 6.69589C26.0665 5.72371 25.2761 4.93332 24.304 4.43796C23.9 4.2321 23.3208 4.06438 22.1881 3.97184C21.0254 3.87685 19.5212 3.87484 17.3083 3.87484Z" fill="#AB9D88" fill-opacity="0.81"/>
</svg>
