<svg width="31" height="31" viewBox="0 0 31 31" fill="none" xmlns="http://www.w3.org/2000/svg">
<path d="M28.1958 0H2.8042C1.2555 0 0 1.2555 0 2.8042V28.1957C0 29.7445 1.2555 31 2.8042 31H28.1957C29.7445 31 31 29.7445 31 28.1957V2.8042C31 1.2555 29.7445 0 28.1958 0ZM9.59272 26.7674C9.59272 27.2182 9.22737 27.5835 8.77665 27.5835H5.30287C4.85215 27.5835 4.4868 27.2182 4.4868 26.7674V12.2055C4.4868 11.7548 4.85215 11.3894 5.30287 11.3894H8.77665C9.22737 11.3894 9.59272 11.7548 9.59272 12.2055V26.7674ZM7.03976 10.0167C5.21717 10.0167 3.73964 8.5392 3.73964 6.71661C3.73964 4.89402 5.21717 3.41649 7.03976 3.41649C8.86235 3.41649 10.3399 4.89402 10.3399 6.71661C10.3399 8.5392 8.86243 10.0167 7.03976 10.0167ZM27.7466 26.8332C27.7466 27.2475 27.4107 27.5835 26.9963 27.5835H23.2687C22.8543 27.5835 22.5183 27.2475 22.5183 26.8332V20.0028C22.5183 18.9838 22.8172 15.5377 19.8555 15.5377C17.5582 15.5377 17.0922 17.8965 16.9986 18.955V26.8332C16.9986 27.2475 16.6627 27.5835 16.2483 27.5835H12.6431C12.2287 27.5835 11.8927 27.2475 11.8927 26.8332V12.1397C11.8927 11.7254 12.2287 11.3894 12.6431 11.3894H16.2483C16.6627 11.3894 16.9986 11.7254 16.9986 12.1397V13.4102C17.8505 12.1318 19.1165 11.1451 21.8119 11.1451C27.7808 11.1451 27.7466 16.7215 27.7466 19.7855V26.8332Z" fill="#AB9D88" fill-opacity="0.81"/>
</svg>
