<svg width="140" height="102" viewBox="0 0 140 102" fill="none" xmlns="http://www.w3.org/2000/svg">
<g opacity="0.9" clip-path="url(#clip0_1673_849)">
<path d="M61.2966 17.1871H61.3727C61.4023 17.1785 61.4318 17.1738 61.466 17.166C61.5374 17.1362 61.6175 17.1018 61.6718 17.0721C61.9127 16.9407 62.1279 16.7882 62.3338 16.631C62.4384 16.5539 62.5412 16.4746 62.6422 16.3933L62.6802 16.3636L62.7175 16.3292L62.7898 16.2658C62.8359 16.2283 62.8835 16.1845 62.9327 16.1344C63.1269 15.9514 63.287 15.7606 63.4431 15.5651C63.5985 15.3696 63.7337 15.1663 63.8564 14.9582L63.903 14.8777L63.9155 14.8566L63.9279 14.8308L63.945 14.7932C63.9699 14.7416 63.9916 14.6869 64.0165 14.636C64.0626 14.5292 64.1061 14.4244 64.147 14.3216C64.2317 14.1136 64.3078 13.9189 64.3832 13.732C64.6706 12.9812 64.8889 12.365 65.0326 11.9364C65.0502 11.8822 65.0658 11.83 65.0792 11.78C65.087 11.7542 65.0917 11.7331 65.1002 11.7073C65.1002 11.6862 65.108 11.6603 65.1126 11.6392C65.1251 11.5501 65.1251 11.4695 65.1212 11.414C65.1134 11.2951 65.0878 11.2404 65.0831 11.2404C65.1002 11.2318 65.0707 11.1043 65.0202 10.901C64.9697 10.6976 64.885 10.4255 64.8135 10.1197C64.7879 10.0259 64.7794 9.94532 64.7669 9.85225C64.7592 9.75841 64.7545 9.67395 64.746 9.59339C64.7335 9.4276 64.7164 9.2884 64.704 9.18204V9.18986C64.704 9.02876 64.6535 8.96072 64.645 8.96541C64.6488 8.96541 64.6488 8.89737 64.5983 8.79571C64.5658 8.73677 64.5276 8.68123 64.4842 8.62991C64.4298 8.57517 64.3707 8.50713 64.2697 8.46412C64.2565 8.4563 64.2402 8.46021 64.2231 8.4563H64.1897L64.1726 8.46412C64.1516 8.47741 64.1221 8.50322 64.0926 8.52356C64.0421 8.57048 63.9994 8.6088 63.9528 8.65572C63.8518 8.75793 63.7549 8.86411 63.6622 8.97401C62.8237 9.97098 62.1748 11.1149 61.748 12.3485C61.668 12.6027 61.5833 12.8569 61.5033 13.129C61.4652 13.2651 61.4318 13.4051 61.3945 13.5451C61.3557 13.6858 61.3176 13.825 61.2888 13.9697C61.2593 14.1136 61.2251 14.2583 61.1956 14.4022C61.1622 14.5469 61.1451 14.6955 61.1156 14.848L61.0775 15.0732C61.0655 15.1493 61.0556 15.2257 61.048 15.3023C61.0309 15.4548 61.01 15.6073 60.9975 15.7645C60.9929 15.8412 60.9851 15.9178 60.9804 15.9984C60.9799 16.076 60.9773 16.154 60.9727 16.2322V16.4691C60.9727 16.5122 60.9765 16.5458 60.9804 16.5841L60.9929 16.6983C61.0061 16.7749 61.0185 16.8555 61.0441 16.936C61.0567 16.9833 61.079 17.0274 61.1095 17.0655C61.14 17.1036 61.1781 17.1349 61.2213 17.1573C61.2438 17.1682 61.2679 17.1753 61.2927 17.1785L61.2966 17.1871Z" fill="#FFF5E6"/>
<path d="M78.2458 3.7373C78.1677 3.76096 78.0916 3.79077 78.0182 3.82645C77.8419 3.90612 77.684 4.02169 77.5544 4.16586C77.5197 4.20452 77.4951 4.25129 77.4829 4.30194C77.4782 4.31445 77.4829 4.32696 77.4829 4.34417C77.4829 4.35668 77.4829 4.37389 77.4914 4.3864C77.4962 4.40173 77.5033 4.41624 77.5124 4.42941L77.5334 4.45913C77.5955 4.54463 77.6686 4.63222 77.7525 4.7219C78.1726 5.17462 78.6523 5.56745 79.1781 5.88949C79.4942 6.08891 79.8438 6.28364 80.2447 6.46195C80.4381 6.5558 80.6533 6.63635 80.8685 6.7255C81.0876 6.80136 81.3199 6.89051 81.5475 6.95855C82.4751 7.25573 83.4027 7.48956 84.2542 7.67647C85.1103 7.8626 85.8988 8.00258 86.5693 8.09643C86.9064 8.14335 87.2187 8.17698 87.4969 8.19027C87.5678 8.18975 87.6367 8.19106 87.7035 8.19418C87.7711 8.19418 87.8472 8.18949 87.9063 8.17698C87.9601 8.16812 88.0163 8.15691 88.0749 8.14335C88.1261 8.13084 88.1753 8.1165 88.2225 8.10034C88.3996 8.03699 88.5045 7.95175 88.5255 7.88371C88.5304 7.87085 88.5315 7.8568 88.5286 7.84331C88.5257 7.82983 88.5189 7.81749 88.5091 7.80785C88.492 7.79065 88.475 7.79065 88.4711 7.79065C88.4796 7.79065 88.4035 7.6968 88.2349 7.54039C87.9814 7.318 87.7139 7.11241 87.4339 6.92492C86.7083 6.42832 85.5702 5.80425 84.1198 5.27402C82.8653 4.81191 81.5904 4.40821 80.2991 4.06419L79.9371 3.97035C79.8269 3.94691 79.717 3.92162 79.6077 3.89449C79.401 3.84366 79.22 3.81394 79.0724 3.78422C78.9248 3.7545 78.8028 3.74121 78.722 3.73261C78.642 3.72479 78.6001 3.72009 78.6001 3.72479C78.6001 3.72009 78.5581 3.70289 78.4486 3.69507C78.4229 3.69507 78.3849 3.69507 78.3468 3.69898C78.3173 3.70367 78.2836 3.71071 78.2458 3.72009V3.7373Z" fill="#FFF5E6"/>
<path d="M80.7769 16.6278L80.5283 16.509C80.3675 16.4284 80.2121 16.3729 80.0731 16.3096L80.0474 16.297L80.014 16.2837L79.9627 16.2673C79.9254 16.2587 79.8788 16.2462 79.8447 16.2462C79.7831 16.2401 79.721 16.2414 79.6598 16.2501C79.4484 16.2923 79.3684 16.4065 79.3304 16.4832C79.2923 16.5684 79.3304 16.6318 79.3389 16.6318C79.2923 16.6239 79.3684 17.1792 79.4446 17.8588C79.4617 18.0285 79.478 18.1896 79.478 18.3257C79.478 18.3937 79.478 18.4531 79.4484 18.504C79.4275 18.5587 79.3979 18.5931 79.3684 18.6354C79.3055 18.712 79.255 18.7879 79.255 18.852C79.255 18.9153 79.2674 18.9537 79.276 18.9583C79.2708 18.9589 79.268 18.9787 79.2674 19.0178C79.2674 19.0389 79.2674 19.0647 79.276 19.0936C79.2845 19.1281 79.297 19.1617 79.3094 19.2039C79.3179 19.2469 79.3436 19.2978 79.3645 19.3447C79.3894 19.3955 79.4104 19.4503 79.4399 19.5097C79.5075 19.6286 79.5751 19.7646 79.6636 19.9132C80.014 20.5029 80.5578 21.3092 81.1941 22.1921C81.835 23.0758 82.4425 23.8649 82.9273 24.4249C83.172 24.7048 83.3826 24.9254 83.5473 25.07C83.609 25.1275 83.6752 25.1798 83.7454 25.2265C83.792 25.2609 83.8215 25.2781 83.8215 25.2734C83.8083 25.2867 84.0235 25.4611 84.4282 25.7489C84.631 25.8935 84.8835 26.0679 85.1834 26.2627C85.3315 26.3607 85.4944 26.4623 85.672 26.5677C85.7606 26.6193 85.8538 26.6748 85.9548 26.7256L86.0348 26.764C86.0643 26.7765 86.0978 26.789 86.1273 26.7976H86.1405V26.8015C86.1405 26.8015 86.1615 26.8062 86.1529 26.8015H86.1568L86.1739 26.8062L86.2119 26.814L86.3091 26.8273C86.5367 26.8351 86.7138 26.7765 86.8785 26.6959C86.9585 26.6529 87.0339 26.6021 87.0976 26.5262C87.11 26.5004 87.1271 26.4832 87.131 26.4457C87.1357 26.4159 87.1357 26.3987 87.1395 26.3776C87.1435 26.3349 87.1492 26.2924 87.1566 26.2502C87.1947 25.8982 87.2405 25.5197 87.2071 25.0872C87.1986 24.9638 87.173 24.8422 87.131 24.7259C87.1225 24.7048 87.1224 24.6962 87.1061 24.6712L87.0805 24.629L87.0339 24.5437C87.0027 24.4842 86.969 24.426 86.9329 24.3693C86.8614 24.2512 86.7899 24.1277 86.7138 24.0135L86.4862 23.6569C86.1619 23.1626 85.833 22.6715 85.4996 22.1835C84.8448 21.2322 84.1714 20.2941 83.4797 19.3697C83.1588 18.9411 82.8512 18.529 82.5521 18.1513C82.4799 18.056 82.4053 17.9627 82.3283 17.8713C82.2547 17.7789 82.1788 17.6884 82.1007 17.5999C81.9497 17.4185 81.7816 17.2522 81.5988 17.1033C81.5483 17.065 81.5103 17.0353 81.4474 16.997C81.4007 16.9673 81.3541 16.9422 81.3083 16.9125C81.2617 16.8867 81.2197 16.857 81.1731 16.8312L81.0341 16.7553C80.9416 16.7084 80.853 16.6576 80.7645 16.6146L80.7769 16.6278Z" fill="#FFF5E6"/>
<path d="M69.8812 19.2093C69.8563 19.2093 69.8268 19.2046 69.8012 19.2046C69.7507 19.2007 69.7041 19.2046 69.6575 19.2046H69.6241L69.5907 19.2171C69.5714 19.225 69.554 19.2367 69.5394 19.2515C69.4963 19.2882 69.4679 19.3393 69.4594 19.3954C69.4555 19.4345 69.4679 19.4549 69.4726 19.4502C69.4594 19.4502 69.5145 19.659 69.5774 19.9092C69.594 19.9728 69.607 20.0323 69.6163 20.0876C69.6163 20.1134 69.6241 20.1384 69.6163 20.1595C69.6163 20.1853 69.607 20.2025 69.6031 20.2236C69.59 20.2558 69.5841 20.2905 69.586 20.3253C69.586 20.3511 69.5945 20.3636 69.5984 20.3636V20.3886C69.5984 20.3972 69.5984 20.4058 69.607 20.4184C69.6106 20.4314 69.6163 20.4444 69.6241 20.4575C69.6279 20.4731 69.6412 20.4864 69.6497 20.5036C69.6585 20.5203 69.6696 20.5372 69.6831 20.5544C69.708 20.5881 69.7375 20.6311 69.7717 20.6733C69.9068 20.8477 70.1088 21.0721 70.345 21.3146C70.5812 21.5515 70.8002 21.7643 70.9735 21.9042C71.0621 21.9723 71.1335 22.027 71.1887 22.0567C71.2011 22.0653 71.2136 22.07 71.226 22.0779C71.2392 22.0779 71.2477 22.0865 71.2555 22.0912C71.2726 22.0951 71.2811 22.099 71.2811 22.0951C71.2811 22.1037 71.3487 22.1373 71.4831 22.1842C71.5499 22.2092 71.6315 22.2361 71.7278 22.2648C71.7745 22.2781 71.8288 22.2945 71.884 22.3078C71.9135 22.3117 71.943 22.3203 71.9726 22.3242H72.0401L72.0526 22.3203C72.0611 22.3203 72.0697 22.3117 72.0821 22.307C72.143 22.2712 72.1951 22.222 72.2344 22.1631C72.2572 22.1326 72.2743 22.0981 72.2849 22.0614C72.2849 22.0481 72.2887 22.0403 72.2887 22.0223V21.9426C72.2763 21.7979 72.2678 21.6454 72.2297 21.4796C72.221 21.4355 72.2069 21.3927 72.1878 21.3521C72.1872 21.349 72.1846 21.3435 72.18 21.3357L72.1707 21.3224L72.1536 21.2974L72.1163 21.2465C72.0868 21.2121 72.0619 21.1785 72.0316 21.1402L71.943 21.0385C71.8255 20.9019 71.7017 20.7632 71.5717 20.6225C71.3292 20.359 71.0805 20.1014 70.8259 19.8498C70.7078 19.7348 70.5983 19.6246 70.4887 19.5229C70.4626 19.498 70.4357 19.474 70.4079 19.451C70.3831 19.4298 70.3574 19.404 70.3279 19.3829C70.2748 19.3386 70.2169 19.3003 70.1554 19.2687C70.1383 19.2641 70.1259 19.2555 70.1049 19.2515C70.0879 19.2515 70.0754 19.2429 70.0583 19.2429C70.0412 19.2429 70.0288 19.2351 70.0164 19.2351C69.9993 19.2351 69.9869 19.2304 69.9698 19.2304L69.8859 19.2171L69.8812 19.2093Z" fill="#FFF5E6"/>
<path d="M67.1372 26.6123C67.1294 26.5779 67.1162 26.5404 67.1077 26.5107C67.0906 26.4426 67.0657 26.3832 67.044 26.3277V26.3199C67.0362 26.3113 67.0362 26.3113 67.0362 26.3066L67.0276 26.2854C67.0191 26.2729 67.0106 26.2557 67.002 26.2471C66.9872 26.2283 66.9702 26.2112 66.9515 26.1963C66.9303 26.1783 66.9051 26.1658 66.878 26.1598C66.851 26.1538 66.8229 26.1545 66.7961 26.1619C66.762 26.1752 66.7534 26.201 66.7534 26.2049C66.7456 26.1877 66.6019 26.3574 66.4248 26.5529C66.3792 26.6035 66.3354 26.6473 66.2935 26.6843C66.2725 26.7015 66.2562 26.7179 66.2345 26.7226C66.2135 26.7304 66.1972 26.7304 66.1754 26.7351C66.1381 26.7351 66.1001 26.7437 66.083 26.7609C66.062 26.7774 66.0581 26.7907 66.0581 26.7946C66.0581 26.7946 66.0496 26.7946 66.0364 26.8079L66.0154 26.829L65.9905 26.8673C65.982 26.8798 65.9734 26.9009 65.9649 26.9181C65.9571 26.939 65.9473 26.9601 65.9354 26.9815L65.8763 27.1512C65.7963 27.4061 65.7038 27.7752 65.6153 28.1913C65.5267 28.6073 65.4545 28.989 65.4172 29.2736C65.4001 29.3888 65.3915 29.5052 65.3915 29.6217V29.7194C65.3921 29.7413 65.3946 29.7525 65.3993 29.753C65.3915 29.753 65.3993 29.8594 65.4211 30.0541C65.4335 30.1519 65.4459 30.2708 65.4677 30.4061C65.4887 30.5429 65.4886 30.5507 65.5057 30.6274C65.513 30.6665 65.5226 30.7077 65.5345 30.7509L65.543 30.7846C65.543 30.7971 65.5516 30.8104 65.5562 30.8229V30.8393L65.564 30.8526C65.5726 30.8604 65.5772 30.8737 65.5858 30.8862C65.6356 30.9449 65.6992 30.9903 65.7707 31.0184C65.8044 31.0316 65.8401 31.0387 65.8763 31.0395C65.8849 31.0395 65.8973 31.0395 65.9105 31.0262C65.9229 31.0184 65.9229 31.0184 65.9315 31.0098C65.9439 31.0012 65.961 30.9879 65.9734 30.9801C66.0876 30.8995 66.2096 30.8143 66.3277 30.6907C66.3623 30.6581 66.3908 30.6194 66.4116 30.5765C66.4116 30.5687 66.4162 30.5687 66.4201 30.5554L66.4287 30.5382L66.4411 30.5046C66.4496 30.4788 66.4582 30.4577 66.4667 30.4279C66.4841 30.3764 66.4996 30.3242 66.5134 30.2715C66.527 30.2183 66.5426 30.1657 66.56 30.1136C66.6182 29.9024 66.6734 29.6764 66.7324 29.4434C66.8459 28.9804 66.943 28.5346 67.023 28.1233C67.0655 27.9199 67.1035 27.7247 67.1372 27.5375C67.145 27.4906 67.1543 27.4437 67.1582 27.3967C67.162 27.3506 67.1706 27.3084 67.1791 27.2614C67.1916 27.1723 67.2001 27.0792 67.1916 26.9854C67.1916 26.9604 67.1916 26.9431 67.1838 26.9134C67.1838 26.8923 67.1753 26.8712 67.1706 26.8501C67.1706 26.829 67.1628 26.8079 67.1582 26.7906C67.1551 26.7688 67.1494 26.7489 67.1411 26.7312C67.1333 26.6921 67.1201 26.6546 67.1115 26.6163L67.1372 26.6123Z" fill="#FFF5E6"/>
<path d="M56.4341 13.5606V13.4792C56.4336 13.4287 56.431 13.3807 56.4264 13.3353V13.3009C56.417 13.2884 56.417 13.2759 56.4085 13.2673C56.4009 13.2472 56.388 13.2297 56.3712 13.2165C56.3299 13.1771 56.2758 13.1543 56.2189 13.1523C56.1809 13.1523 56.1646 13.1656 56.1646 13.1695C56.1599 13.157 55.9626 13.2337 55.7171 13.3181C55.6607 13.3397 55.6031 13.358 55.5446 13.3729C55.519 13.3776 55.4941 13.3862 55.4724 13.3815C55.4475 13.3815 55.4304 13.3776 55.4102 13.3737C55.3714 13.3651 55.3333 13.3565 55.3084 13.3651C55.2828 13.369 55.2704 13.3776 55.2742 13.3815H55.2494C55.2416 13.3825 55.2318 13.3854 55.2199 13.3901C55.2116 13.3953 55.1989 13.4023 55.1818 13.4112C55.1694 13.4198 55.1523 13.4284 55.1398 13.4409C55.1266 13.4542 55.1103 13.4628 55.0894 13.48C55.0552 13.509 55.0171 13.5387 54.979 13.577C54.819 13.7295 54.6123 13.9547 54.3972 14.2097C54.1827 14.4677 53.9932 14.7102 53.8704 14.8932C53.8141 14.9779 53.7647 15.0671 53.7228 15.1599C53.7222 15.1702 53.7196 15.1803 53.7151 15.1896C53.7151 15.2068 53.7104 15.2154 53.7151 15.2154C53.7057 15.2154 53.6809 15.2873 53.6467 15.4234C53.6304 15.4914 53.6086 15.5759 53.5923 15.6784C53.5838 15.7292 53.5752 15.78 53.5667 15.8395C53.5667 15.8692 53.5589 15.8989 53.5589 15.9333V16.0131C53.5661 16.0214 53.5716 16.03 53.5752 16.0389C53.6133 16.0992 53.667 16.1479 53.7306 16.1796C53.7632 16.2 53.7993 16.214 53.837 16.2211H53.8751C53.8875 16.2211 53.8914 16.2211 53.9038 16.2172C53.9212 16.2165 53.9384 16.2139 53.9551 16.2094C54.0942 16.1828 54.2457 16.1624 54.4057 16.1108C54.4481 16.0962 54.4892 16.0779 54.5284 16.0561C54.5323 16.0514 54.5362 16.0514 54.5448 16.0428L54.558 16.035L54.5828 16.0131C54.6004 16.0016 54.616 15.9875 54.6294 15.9708C54.659 15.9411 54.6924 15.9075 54.7265 15.877C54.7592 15.8473 54.7903 15.815 54.8198 15.78C54.9425 15.6486 55.0673 15.5128 55.1942 15.3726C55.4475 15.0879 55.6837 14.8126 55.8903 14.5577C55.996 14.4305 56.0928 14.3074 56.1809 14.1886C56.2018 14.1588 56.2275 14.1291 56.2446 14.0994C56.2609 14.0697 56.2865 14.0447 56.3036 14.0142C56.3436 13.958 56.376 13.8967 56.3999 13.8319C56.3999 13.8147 56.4085 13.8022 56.4132 13.7811C56.4132 13.7639 56.4132 13.7514 56.4209 13.7342C56.4209 13.717 56.4209 13.7045 56.4295 13.692V13.5598L56.4341 13.5606Z" fill="#FFF5E6"/>
<path d="M78.83 0.440395C78.7969 0.462292 78.7658 0.482104 78.7368 0.49983C78.6739 0.538151 78.6234 0.580381 78.5729 0.614791L78.5643 0.622612C78.5558 0.627304 78.5558 0.627304 78.5558 0.631214L78.5387 0.644509C78.5079 0.674377 78.4836 0.710318 78.4672 0.750085C78.4562 0.778913 78.4516 0.80982 78.4538 0.840628C78.4559 0.871436 78.4647 0.901395 78.4796 0.928392C78.5006 0.962802 78.5301 0.966712 78.5348 0.962802C78.5216 0.975315 78.7329 1.08949 78.9901 1.23808C79.0538 1.27614 79.1112 1.31159 79.1625 1.34444C79.1882 1.36556 79.2091 1.37807 79.2177 1.39918C79.2348 1.42108 79.2387 1.4422 79.2472 1.46331C79.2596 1.50554 79.2767 1.54386 79.2977 1.56107C79.3092 1.57229 79.3238 1.57966 79.3397 1.58218C79.3397 1.58218 79.3443 1.59 79.3606 1.59939C79.3692 1.6033 79.3777 1.6119 79.3901 1.61581C79.4036 1.61946 79.4192 1.6252 79.4368 1.63302C79.4544 1.64084 79.474 1.64657 79.4958 1.65022L79.5719 1.66273C79.6268 1.67212 79.69 1.67916 79.7615 1.68385C80.0443 1.70966 80.4405 1.71826 80.8872 1.71357C81.3347 1.70575 81.7394 1.68854 82.0424 1.65882C82.1947 1.64162 82.3166 1.62441 82.4013 1.59939C82.4223 1.5947 82.4433 1.59079 82.4557 1.58609C82.4728 1.58218 82.4852 1.57358 82.4984 1.56967C82.5202 1.56185 82.5313 1.55611 82.5318 1.55247C82.5318 1.56029 82.6414 1.52666 82.8271 1.45471C82.9195 1.41639 83.0337 1.37416 83.1681 1.31472C83.2357 1.28501 83.3033 1.25529 83.3794 1.21697C83.4189 1.19907 83.4569 1.17788 83.4928 1.15362L83.5224 1.13251C83.5317 1.12416 83.5431 1.11556 83.5565 1.1067H83.5604V1.10279L83.5651 1.09419L83.5775 1.08167C83.5863 1.07229 83.5949 1.06082 83.6032 1.04726C83.6461 0.974913 83.6719 0.893552 83.6785 0.809521C83.6785 0.76729 83.6785 0.72897 83.6661 0.68674C83.6622 0.673619 83.655 0.661754 83.6451 0.65233C83.6366 0.644509 83.628 0.639817 83.6241 0.631214L83.5814 0.592894C83.4633 0.491228 83.3414 0.377049 83.1813 0.279293C83.1367 0.251023 83.0883 0.229421 83.0376 0.215165C83.029 0.215165 83.0252 0.215165 83.0127 0.211255H82.9918L82.9537 0.203435C82.9281 0.203435 82.8985 0.19405 82.869 0.19405C82.81 0.19405 82.7556 0.18623 82.6965 0.181537C82.6375 0.177627 82.5823 0.177627 82.5233 0.173717C81.8098 0.142945 81.0953 0.13825 80.3814 0.15964C80.1613 0.164332 79.9518 0.172935 79.7529 0.185448C79.7025 0.185448 79.6558 0.19014 79.6053 0.19405C79.5595 0.19405 79.5129 0.202653 79.4624 0.207345C79.3664 0.215162 79.2716 0.233519 79.1796 0.262088C79.1548 0.269909 79.1377 0.274601 79.112 0.287896L79.053 0.317613C79.032 0.325434 79.0149 0.334036 78.9939 0.342639L78.9396 0.372357C78.9023 0.394254 78.867 0.414066 78.8339 0.431792L78.83 0.440395Z" fill="#FFF5E6"/>
<path d="M52.9297 29.3235C52.8629 29.3532 52.7953 29.3783 52.7316 29.408C52.605 29.4588 52.4915 29.5229 52.3859 29.5738L52.3649 29.5816C52.3478 29.5902 52.3525 29.5902 52.3439 29.5949L52.3105 29.616C52.2849 29.6371 52.2554 29.6582 52.2383 29.6801C52.2022 29.7206 52.1724 29.7662 52.1497 29.8154C52.0911 29.9454 52.0852 30.0933 52.1334 30.2276C52.1668 30.3167 52.2258 30.3464 52.2297 30.3371C52.2002 30.3629 52.5793 30.7453 53.0353 31.2208C53.1495 31.3396 53.2544 31.4538 53.3383 31.5649C53.3811 31.6196 53.4152 31.6665 53.4315 31.7213C53.4572 31.7807 53.4611 31.8276 53.4743 31.8777C53.4906 31.9801 53.5116 32.0732 53.5496 32.1248C53.5885 32.1756 53.6172 32.1968 53.6258 32.1921C53.6258 32.1921 53.6335 32.214 53.6592 32.2437C53.6724 32.2562 53.6848 32.2773 53.7104 32.2984C53.7353 32.3195 53.7609 32.3407 53.7943 32.3626C53.8239 32.3876 53.8658 32.4095 53.9086 32.4345C53.9505 32.4556 53.9971 32.4853 54.0476 32.5111C54.1525 32.5581 54.2706 32.6167 54.4058 32.6676C54.9418 32.8842 55.7047 33.1344 56.5562 33.3769C57.4123 33.6193 58.1961 33.8093 58.7827 33.9071C59.0732 33.954 59.3141 33.9837 59.4865 33.979H59.6007C59.6341 33.979 59.6598 33.9712 59.6846 33.9712C59.7302 33.9629 59.7527 33.9572 59.7522 33.954C59.7522 33.9712 59.9674 33.9579 60.3427 33.9032C60.5322 33.8735 60.7598 33.8352 61.0302 33.7796C61.1646 33.7499 61.3083 33.7202 61.4559 33.678C61.5321 33.6568 61.6113 33.6357 61.6921 33.6013L61.755 33.5763C61.776 33.5677 61.8016 33.5505 61.8226 33.538H61.8304V33.5302C61.8304 33.5302 61.8436 33.5208 61.8397 33.5208L61.8521 33.5083L61.8778 33.4871C61.8941 33.4699 61.9151 33.4488 61.9322 33.4277C62.0502 33.2744 62.1007 33.1047 62.1341 32.9272C62.1514 32.8331 62.1514 32.7366 62.1341 32.6425C62.1264 32.6128 62.1217 32.5878 62.1007 32.5534C62.0844 32.5237 62.0759 32.5151 62.0627 32.4939L61.9912 32.3837C61.7931 32.0818 61.5872 31.7557 61.3037 31.4413C61.2291 31.3534 61.1428 31.2763 61.0473 31.2122C61.0302 31.2036 61.0255 31.195 61.0007 31.1825L60.9618 31.1652L60.8865 31.1316C60.836 31.1105 60.7855 31.0847 60.7311 31.0636L60.4017 30.9361C60.2922 30.8978 60.1826 30.8556 60.0731 30.8172C59.6251 30.6608 59.1626 30.5081 58.6856 30.359C57.7855 30.0757 56.8789 29.8139 55.9665 29.5738C55.5661 29.465 55.1639 29.363 54.76 29.268L54.4772 29.2047C54.384 29.1875 54.2962 29.1656 54.1991 29.153C54.0176 29.117 53.8322 29.1043 53.6475 29.1155C53.6009 29.1233 53.5582 29.1233 53.5077 29.1366C53.4657 29.1444 53.4277 29.1577 53.3896 29.1663C53.3515 29.1749 53.3135 29.1875 53.2715 29.1961L53.1573 29.2344C53.0839 29.2584 53.0108 29.2837 52.9382 29.3102L52.9297 29.3235Z" fill="#FFF5E6"/>
<path d="M55.3846 18.8144C55.3322 18.7816 55.2788 18.7503 55.2246 18.7206C55.1236 18.658 55.0226 18.6111 54.9379 18.5595L54.9208 18.5517C54.9084 18.5431 54.9084 18.547 54.8998 18.5431L54.8664 18.5298C54.8408 18.522 54.8121 18.5087 54.7903 18.5087C54.7502 18.5007 54.7092 18.498 54.6683 18.5008C54.5285 18.5133 54.4702 18.5806 54.4407 18.6275C54.4112 18.6784 54.4322 18.7253 54.4407 18.7253C54.4112 18.7175 54.4322 19.0819 54.4446 19.5277V19.8327C54.4407 19.8796 54.4368 19.9187 54.4151 19.9476C54.398 19.982 54.377 20.0024 54.356 20.0282C54.3094 20.0712 54.276 20.1173 54.2721 20.1603C54.2675 20.2026 54.2721 20.2276 54.2799 20.2276C54.2799 20.2276 54.2721 20.2409 54.2721 20.2667V20.3167C54.2721 20.3379 54.2799 20.3637 54.2846 20.3934C54.2846 20.4231 54.3016 20.4567 54.3141 20.4872C54.326 20.5216 54.34 20.5581 54.356 20.5967C54.3941 20.6781 54.4322 20.7711 54.4827 20.8728C54.6808 21.2802 54.997 21.841 55.3683 22.4564C55.7435 23.0719 56.1017 23.6279 56.3883 24.0268C56.5359 24.2262 56.6579 24.3834 56.7597 24.489C56.7846 24.5148 56.8063 24.5406 56.8273 24.557L56.8817 24.6039C56.9122 24.63 56.9278 24.6412 56.9283 24.6376C56.9197 24.6462 57.0502 24.7736 57.2988 24.9895C57.4255 25.0966 57.5816 25.228 57.7673 25.3766C57.8605 25.4522 57.9615 25.5299 58.0703 25.6096C58.1254 25.6527 58.1845 25.6902 58.2482 25.7332L58.2987 25.7629C58.3158 25.7707 58.3368 25.784 58.3577 25.7926H58.3655V25.7965C58.3655 25.7965 58.3787 25.8012 58.374 25.7965L58.3873 25.8012L58.4121 25.8091L58.4758 25.8224C58.6234 25.8435 58.7454 25.8224 58.8549 25.7793C58.9122 25.7606 58.9643 25.7288 59.0072 25.6863C59.015 25.6738 59.0282 25.6605 59.0321 25.6354C59.0367 25.6143 59.0367 25.6057 59.0406 25.5932C59.0445 25.5674 59.053 25.5377 59.0577 25.5127C59.0996 25.2874 59.1509 25.0458 59.1509 24.7611C59.1509 24.6892 59.1509 24.6164 59.1206 24.5234C59.1206 24.5109 59.1167 24.5023 59.1082 24.4851L59.0958 24.4553L59.0701 24.3959C59.0541 24.3584 59.0359 24.3187 59.0157 24.277C58.973 24.1965 58.9349 24.1112 58.8891 24.0307L58.7578 23.7843C58.5727 23.4409 58.3831 23.0999 58.1891 22.7614C57.809 22.0977 57.4166 21.4412 57.0122 20.7922C56.8355 20.5036 56.6542 20.2178 56.4684 19.9351C56.4264 19.8671 56.3798 19.8037 56.334 19.7357C56.2873 19.6716 56.2454 19.6082 56.1988 19.5449C56.1056 19.4213 56.0131 19.2985 55.8958 19.1883C55.8616 19.1624 55.8406 19.1366 55.8026 19.1069C55.7737 19.087 55.7454 19.0662 55.7179 19.0444C55.692 19.0225 55.664 19.0011 55.634 18.9802L55.5454 18.9208C55.4869 18.8812 55.4307 18.8444 55.3768 18.8105L55.3846 18.8144Z" fill="#FFF5E6"/>
<path d="M83.2761 29.846C83.2513 29.8038 83.2303 29.7616 83.2047 29.7233C83.1627 29.6427 83.1122 29.5747 83.0695 29.5105L83.0617 29.498C83.0532 29.4902 83.0532 29.4902 83.0532 29.4855L83.0361 29.4644C83.0237 29.4511 83.0066 29.43 82.9895 29.4214C82.9626 29.4027 82.9346 29.3857 82.9056 29.3706C82.8676 29.3557 82.8269 29.3491 82.7862 29.3512C82.7454 29.3534 82.7056 29.3642 82.6694 29.3831C82.6228 29.4089 82.6142 29.4511 82.6189 29.4511C82.6018 29.4347 82.4332 29.7014 82.218 30.0243C82.1629 30.1049 82.1124 30.1808 82.0619 30.241C82.037 30.2707 82.0161 30.2957 81.9865 30.3129C81.957 30.3301 81.9314 30.3387 81.9019 30.3512C81.8467 30.3684 81.7962 30.3849 81.7713 30.4146C81.7457 30.4404 81.7372 30.4615 81.7418 30.4654C81.7418 30.4654 81.7286 30.474 81.7162 30.4912C81.7064 30.5013 81.6981 30.5126 81.6913 30.5249C81.6825 30.5431 81.674 30.5629 81.6657 30.5843C81.6533 30.6062 81.6486 30.6359 81.64 30.6609L81.6152 30.7548C81.6028 30.8267 81.5818 30.9034 81.5686 30.9964C81.4992 31.472 81.4528 31.9506 81.4295 32.4307C81.3961 33 81.3829 33.5177 81.4 33.9041C81.4085 34.0949 81.421 34.2521 81.4466 34.3624C81.4505 34.3921 81.4551 34.4132 81.459 34.4343C81.4647 34.4552 81.4704 34.4721 81.4761 34.4851C81.4797 34.5 81.4855 34.5142 81.4932 34.5274C81.4847 34.5274 81.5142 34.6681 81.5942 34.9051C81.6323 35.024 81.6828 35.1726 81.7457 35.343C81.7799 35.4275 81.8133 35.5167 81.8552 35.6144C81.8762 35.6613 81.898 35.7122 81.9275 35.763L81.9485 35.8013L81.978 35.8436V35.8514L81.9819 35.8561L81.9904 35.8647L82.0028 35.8772L82.0456 35.9116C82.1466 35.9796 82.2476 36.0007 82.3532 36.0133C82.4037 36.0133 82.4581 36.0133 82.5133 36.0007C82.5304 35.9921 82.5428 35.9875 82.5599 35.9749L82.5894 35.9452C82.7757 35.7797 82.9439 35.5946 83.0913 35.3931C83.1247 35.3423 83.1627 35.2875 83.1876 35.2156C83.1876 35.2023 83.1922 35.1984 83.1961 35.1812V35.1561C83.2008 35.1561 83.2132 35.1053 83.2132 35.1053C83.221 35.0719 83.2267 35.0365 83.2303 34.9989C83.2389 34.927 83.2513 34.8504 83.2598 34.7784L83.2847 34.5571C83.3189 34.2594 83.3484 33.951 83.3733 33.6319C83.4284 32.9953 83.4618 32.3846 83.4875 31.8238C83.4999 31.5428 83.5082 31.2769 83.5123 31.0261V30.8392C83.5123 30.7759 83.5123 30.7204 83.5084 30.657C83.5069 30.5352 83.4913 30.4139 83.4618 30.2957C83.444 30.2396 83.4229 30.1845 83.3989 30.1307C83.3865 30.1041 83.3766 30.0799 83.3694 30.058L83.3313 29.986C83.3057 29.9391 83.2847 29.8922 83.2598 29.8499L83.2761 29.846Z" fill="#FFF5E6"/>
<path d="M74.92 39.1282C74.8733 39.1321 74.8267 39.1407 74.7801 39.1446C74.6923 39.1532 74.6077 39.1744 74.5315 39.1869H74.5191C74.5067 39.1916 74.5067 39.1916 74.5028 39.1955L74.4771 39.2041C74.46 39.2127 74.4352 39.2213 74.4228 39.2299C74.3928 39.2452 74.3655 39.2652 74.342 39.2893C74.3136 39.3181 74.2918 39.3527 74.278 39.3908C74.2642 39.4288 74.2587 39.4695 74.2619 39.5099C74.2666 39.5646 74.3008 39.5865 74.3047 39.5818C74.2829 39.5904 74.46 39.854 74.6714 40.1762C74.7219 40.2567 74.7723 40.3326 74.8058 40.4053C74.8228 40.4444 74.8399 40.4733 74.8399 40.5031C74.8438 40.5375 74.8399 40.5672 74.8399 40.5969C74.8314 40.6556 74.8314 40.7111 74.8477 40.7408C74.8648 40.7744 74.8819 40.7916 74.8866 40.7877C74.8866 40.7877 74.8866 40.8002 74.899 40.8213L74.92 40.8597L74.9619 40.9066C74.9806 40.9258 75.0003 40.9441 75.0209 40.9613C75.0466 40.9785 75.0676 40.9997 75.0971 41.0208C75.1561 41.0591 75.2191 41.1099 75.2991 41.1568C75.6028 41.3524 76.0495 41.594 76.5561 41.845C77.0618 42.0953 77.5342 42.3111 77.8884 42.4472C78.0655 42.5153 78.217 42.5614 78.3266 42.5872C78.3522 42.5911 78.3778 42.5997 78.3988 42.5997C78.419 42.5992 78.4371 42.6008 78.4532 42.6044H78.4998C78.4998 42.6122 78.635 42.638 78.8875 42.6592C79.0141 42.6678 79.1656 42.6803 79.3474 42.6889C79.436 42.6889 79.5331 42.6936 79.6379 42.6936C79.6884 42.6936 79.7436 42.6936 79.8026 42.685H79.8493C79.8654 42.6773 79.8823 42.6715 79.8997 42.6678H79.9083L79.9168 42.6638L79.9332 42.6552L79.9798 42.6294C80.0703 42.5674 80.1429 42.4824 80.1903 42.3831C80.2161 42.3344 80.2332 42.2814 80.2408 42.2267C80.2408 42.2095 80.2408 42.197 80.2369 42.1751C80.233 42.1586 80.2284 42.15 80.2245 42.1375L80.1988 42.0648C80.1235 41.874 80.0427 41.666 79.9168 41.454C79.8827 41.4032 79.8492 41.3477 79.7902 41.2929C79.7825 41.2847 79.7739 41.2774 79.7646 41.271L79.7436 41.2585L79.7016 41.2288C79.6721 41.2077 79.6426 41.1905 79.6131 41.1694L79.4235 41.0552C79.3598 41.0161 79.2969 40.9824 79.2332 40.9441C78.976 40.7955 78.7018 40.6469 78.4237 40.4984C77.8932 40.2169 77.3576 39.9455 76.8171 39.6842C76.5784 39.5687 76.338 39.4566 76.0962 39.348C76.0396 39.3217 75.9821 39.2977 75.9237 39.276C75.8646 39.2549 75.8141 39.2291 75.7551 39.2088C75.644 39.1628 75.528 39.13 75.4094 39.111C75.3752 39.111 75.3503 39.1024 75.3162 39.1024H75.1561C75.1292 39.1019 75.1025 39.1032 75.0761 39.1063C75.0256 39.1063 74.9705 39.1149 74.9238 39.1196L74.92 39.1282Z" fill="#FFF5E6"/>
<path d="M84.3785 42.5277V42.6685C84.3785 42.7569 84.3831 42.8421 84.3831 42.9227V42.9782C84.3917 42.9993 84.3956 43.0204 84.4041 43.0376C84.4148 43.0691 84.432 43.0979 84.4546 43.1221C84.4798 43.1537 84.5111 43.1797 84.5466 43.1987C84.5822 43.2177 84.6212 43.2291 84.6613 43.2324C84.7156 43.2324 84.7413 43.2026 84.7374 43.1987C84.7413 43.2198 85.0241 43.0799 85.3737 42.9141C85.454 42.8761 85.5356 42.8409 85.6184 42.8085C85.6564 42.7952 85.686 42.7827 85.7194 42.7874C85.7536 42.7874 85.7784 42.7913 85.8079 42.7999C85.8631 42.8124 85.9175 42.8249 85.9517 42.8124C85.9851 42.8046 86.0022 42.7874 86.0022 42.7827C86.0022 42.7827 86.0146 42.7827 86.0356 42.7749C86.0441 42.7702 86.0612 42.7655 86.0736 42.7569C86.0915 42.7473 86.1084 42.7361 86.1241 42.7232C86.1451 42.7107 86.1669 42.6896 86.1878 42.6724C86.2088 42.6513 86.2337 42.6302 86.2554 42.6044C86.3013 42.5496 86.3603 42.4941 86.4155 42.4222C86.647 42.1422 86.9468 41.734 87.263 41.2632C87.5792 40.7924 87.8535 40.3505 88.0384 40.015C88.1269 39.8453 88.1992 39.7053 88.2326 39.599C88.2411 39.5739 88.2497 39.5481 88.2582 39.5317L88.2706 39.477C88.2792 39.4465 88.2792 39.434 88.2792 39.43C88.2877 39.43 88.3297 39.2979 88.3841 39.0515C88.4126 38.928 88.4436 38.7768 88.4773 38.5979C88.4944 38.5088 88.5068 38.4103 88.5239 38.3086C88.5278 38.2578 88.5363 38.203 88.5363 38.1436V37.995C88.5264 37.9794 88.5193 37.9622 88.5154 37.9442C88.4677 37.8447 88.3948 37.7597 88.304 37.6978C88.2595 37.6652 88.2095 37.6409 88.1564 37.6259C88.1401 37.6259 88.1269 37.6212 88.1059 37.6259C88.0896 37.6259 88.0811 37.6337 88.0679 37.6337C88.043 37.6384 88.022 37.647 87.9964 37.6509C87.7983 37.7025 87.5831 37.7486 87.3555 37.8503C87.2926 37.876 87.2343 37.912 87.183 37.9567C87.1745 37.9653 87.1698 37.9653 87.1574 37.9778L87.1403 37.9989L87.1069 38.038C87.0826 38.063 87.06 38.0897 87.0393 38.1178C86.9927 38.1736 86.9463 38.2317 86.9002 38.2922C86.8536 38.3516 86.8117 38.411 86.7651 38.4658C86.5848 38.7046 86.4022 38.9538 86.2173 39.2134C85.8674 39.7045 85.527 40.2025 85.1965 40.7071C85.045 40.941 84.8974 41.1654 84.7708 41.3781C84.7374 41.429 84.7079 41.4837 84.6737 41.5392C84.6442 41.594 84.6108 41.6456 84.5851 41.6956C84.5307 41.802 84.4756 41.9084 84.4422 42.0272C84.4336 42.0569 84.4251 42.082 84.4212 42.1211C84.4212 42.15 84.4127 42.1758 84.408 42.2008C84.408 42.2266 84.3995 42.2525 84.3956 42.2822C84.3956 42.3072 84.3956 42.3369 84.3917 42.3627C84.3917 42.4136 84.3831 42.4683 84.3831 42.5152L84.3785 42.5277Z" fill="#FFF5E6"/>
<path d="M69.7188 11.1317C69.7149 11.2084 69.6893 11.4712 69.7654 11.7941C69.8035 11.9427 69.8586 12.0952 69.8586 12.0952C69.913 12.2563 69.955 12.3455 69.9674 12.3416C69.9596 12.3541 70.0684 12.4393 70.3263 12.4769C70.4483 12.4941 70.6215 12.5113 70.8196 12.4432C71.0177 12.3799 71.2112 12.2141 71.3712 12.0405C71.5491 11.8403 71.654 11.6025 71.7519 11.3484C71.8016 11.2209 71.8397 11.0895 71.8816 10.9495C71.9194 10.814 71.9546 10.6737 71.9873 10.5288C72.0129 10.3849 72.0463 10.2316 72.0673 10.083C72.0761 10.0064 72.0875 9.93157 72.1015 9.85858C72.1046 9.82052 72.11 9.78089 72.1178 9.73971L72.131 9.62084C72.1605 9.30254 72.1605 8.97956 72.152 8.65266C72.1285 8.04144 72.0594 7.43285 71.9453 6.83206C71.8055 5.76222 71.7767 6.12822 71.6377 5.05759C71.6206 4.9137 71.5064 4.79013 71.3502 4.72288C71.2451 4.67595 71.2451 4.67595 71.3502 4.72288C71.278 4.69183 71.2134 4.6454 71.1607 4.5868C71.1016 4.51876 70.9967 4.48905 70.895 4.50625C70.7332 4.5387 70.577 4.59454 70.4312 4.67204C70.4312 4.67204 70.4273 4.67204 70.4234 4.67595C70.1282 4.84175 69.9262 5.13423 69.8369 5.46113L69.6473 6.15715C69.6388 6.21189 69.6217 6.29323 69.6007 6.39098C69.4741 7.01036 69.3521 7.38809 69.314 7.5578C69.276 7.71108 69.2806 7.78694 69.4578 9.0476C69.7141 10.8432 69.7398 10.9198 69.7273 11.1192L69.7188 11.1317Z" fill="#FFF5E6"/>
<path d="M84.9682 13.6061C85.0614 13.6272 85.1119 13.6272 85.1119 13.6233C85.1124 13.627 85.1321 13.6311 85.1709 13.6358H85.2463C85.2758 13.6358 85.31 13.6358 85.3481 13.628C85.4388 13.6161 85.5289 13.5989 85.6176 13.5764C85.7233 13.5514 85.8414 13.5216 85.9719 13.4661L86.0224 13.4403C86.0403 13.4308 86.0572 13.4195 86.0729 13.4067C86.0908 13.3921 86.1065 13.375 86.1195 13.3558C86.1287 13.3389 86.1399 13.3231 86.1529 13.3089C86.2063 13.2357 86.2386 13.1491 86.2461 13.0587C86.2464 13.0309 86.2406 13.0034 86.229 12.9781C86.2252 12.9656 86.2166 12.9523 86.2119 12.9437L86.1956 12.9187L86.128 12.8123C86.0814 12.7409 86.0265 12.6716 85.9633 12.6043C85.9009 12.5317 85.8269 12.4701 85.7443 12.4221L85.4995 12.2946C85.3349 12.2055 85.1577 12.1202 84.9767 12.0318C84.8016 11.9458 84.6261 11.8608 84.45 11.7769L83.9567 11.5478C83.8005 11.4758 83.6483 11.4031 83.5053 11.3444L83.2987 11.2545C83.2652 11.242 83.2311 11.2248 83.2015 11.2123C83.1643 11.1967 83.1265 11.1826 83.0881 11.17C82.9765 11.141 82.8616 11.1268 82.7463 11.1278C82.6515 11.1262 82.5573 11.1421 82.4682 11.1747C82.4345 11.1897 82.4031 11.2095 82.3749 11.2334C82.3534 11.2533 82.3401 11.2807 82.3377 11.31C82.333 11.3569 82.3454 11.3734 82.3454 11.3734C82.3454 11.3734 82.3625 11.4242 82.4045 11.5094C82.6704 12.0169 83.0362 12.4644 83.4797 12.8248C83.6778 12.9867 83.893 13.1056 84.0825 13.2026C84.2767 13.3042 84.45 13.3942 84.6015 13.4622C84.753 13.5295 84.8796 13.5764 84.9682 13.5975V13.6061Z" fill="#FFF5E6"/>
<path d="M67.4239 42.9953C67.7105 42.9445 67.8535 42.8765 67.8535 42.8679C67.8581 42.8804 67.9211 42.8679 68.0353 42.8342L68.1316 42.8045C68.1534 42.7959 68.1658 42.7959 68.1906 42.7834C68.2088 42.7746 68.2285 42.7659 68.2497 42.7576C68.3305 42.7232 68.4219 42.6778 68.5239 42.6215C68.722 42.512 68.959 42.3713 69.2239 42.1891C69.4857 42.0061 69.7848 41.798 70.0754 41.5095C70.1142 41.4758 70.1476 41.4375 70.1857 41.3953C70.223 41.357 70.2525 41.3061 70.2867 41.2592C70.3181 41.2036 70.3409 41.1435 70.3543 41.0809C70.362 41.0301 70.3752 40.9792 70.3838 40.9245C70.4086 40.7118 70.4467 40.474 70.3162 40.2113C70.2798 40.1433 70.2295 40.0839 70.1686 40.0369C70.1391 40.0158 70.101 39.986 70.0715 39.9735L69.9914 39.9266C69.8822 39.8638 69.771 39.8043 69.6582 39.7483C69.4212 39.6254 69.1762 39.5191 68.9248 39.43C68.6501 39.3249 68.3617 39.2607 68.0687 39.2392C67.7854 39.2314 67.4959 39.2215 67.2001 39.2095C66.6136 39.1837 65.9983 39.1837 65.3745 39.1797C64.746 39.1797 64.1346 39.1711 63.5441 39.1711C62.9537 39.1711 62.385 39.179 61.8451 39.1837C61.3304 39.1845 60.8158 39.1944 60.3014 39.2134L59.6023 39.2392C59.488 39.2392 59.3785 39.247 59.2729 39.2517C59.168 39.2517 58.9947 39.2689 58.8891 39.2853C58.5375 39.3433 58.1937 39.4417 57.8644 39.5786C57.5614 39.7061 57.3128 39.85 57.1434 40.0111C57.0648 40.0813 57.003 40.1684 56.9624 40.266C56.9321 40.3375 56.9294 40.4178 56.9547 40.4912C57.0005 40.6101 57.0634 40.6398 57.0681 40.6351C57.0595 40.6437 57.1815 40.7415 57.4138 40.894C57.65 41.0473 57.9957 41.2592 58.447 41.493C59.3404 41.9552 60.6433 42.5332 62.1908 42.8382C62.9623 42.9953 63.7213 43.0376 64.3964 43.0634C65.0746 43.0931 65.6906 43.1017 66.2049 43.0931C66.7192 43.0845 67.1372 43.0462 67.4239 42.9993V42.9953Z" fill="#FFF5E6"/>
<path d="M67.1714 0.483373C67.1787 0.458348 67.1843 0.432801 67.1885 0.406733C67.2009 0.3559 67.2048 0.309759 67.2172 0.266747V0.198709C67.2137 0.179292 67.2066 0.160718 67.1963 0.143965C67.1661 0.0971915 67.1216 0.0615219 67.0696 0.0422993C67.0323 0.0290045 67.0114 0.0422993 67.0152 0.0422993C67.0152 0.0290045 66.8047 0.0501197 66.5468 0.072017C66.4865 0.0763943 66.4262 0.0790023 66.3658 0.0798375C66.3363 0.0798375 66.3153 0.0798375 66.2943 0.072017C66.2687 0.0634145 66.2524 0.054812 66.2353 0.0462095C66.2058 0.0278713 66.1726 0.0163831 66.1382 0.0125815C66.1128 0.0120601 66.1001 0.0131029 66.1001 0.0157097H66.0457C66.0328 0.0162311 66.0198 0.0188379 66.0069 0.0235302C65.9913 0.0235302 65.9735 0.0329147 65.9571 0.0415172C65.9408 0.0501197 65.923 0.05403 65.9028 0.0626325C65.8639 0.0837477 65.8173 0.100953 65.7668 0.130671C65.5726 0.236247 65.3201 0.402041 65.0459 0.59286C64.7716 0.788372 64.5316 0.970588 64.363 1.11918C64.283 1.19582 64.2154 1.25525 64.1773 1.30609C64.1695 1.3186 64.161 1.3272 64.1525 1.33971C64.1439 1.34832 64.1392 1.36161 64.1354 1.36552C64.1266 1.37908 64.124 1.38612 64.1276 1.38664C64.1229 1.38664 64.0763 1.44607 64.0087 1.57355C63.9753 1.63689 63.9334 1.71353 63.8906 1.80269C63.8697 1.84961 63.844 1.89653 63.8231 1.95127C63.8153 1.97708 63.8021 2.00602 63.7935 2.03574L63.7858 2.06154V2.11707C63.8012 2.17535 63.8283 2.22986 63.8652 2.27731C63.9022 2.32476 63.9484 2.36417 64.001 2.39313C64.0087 2.39313 64.0212 2.40095 64.0344 2.40564H64.0639C64.0805 2.40512 64.0973 2.40643 64.1144 2.40955C64.2573 2.42207 64.4096 2.43927 64.5735 2.43067C64.615 2.43067 64.6587 2.42363 64.7048 2.40955C64.7126 2.40955 64.7126 2.40955 64.7258 2.40173L64.7382 2.39235L64.7677 2.37984C64.7854 2.37254 64.805 2.36263 64.8268 2.35012C64.8641 2.32979 64.9034 2.30711 64.9449 2.28208C64.9829 2.26096 65.021 2.23516 65.0591 2.21404C65.2106 2.12098 65.3667 2.01853 65.5267 1.91686C65.9562 1.63524 66.3752 1.33786 66.783 1.02533C66.8125 1.005 66.842 0.979191 66.8676 0.958076C66.8958 0.937234 66.9225 0.914503 66.9477 0.890038C66.9982 0.843115 67.0487 0.796192 67.0875 0.737539C67.0953 0.720334 67.103 0.711731 67.1124 0.690616C67.1162 0.678103 67.1248 0.660898 67.1295 0.648385C67.1333 0.63509 67.1419 0.622578 67.1458 0.605373L67.159 0.563142C67.1667 0.534467 67.175 0.507617 67.1838 0.482591L67.1714 0.483373Z" fill="#FFF5E6"/>
<path d="M52.8753 39.2354C52.8543 39.2354 52.8333 39.2432 52.8123 39.2479C52.7743 39.2526 52.7362 39.269 52.7028 39.2776H52.6942C52.6896 39.2776 52.6896 39.2776 52.6857 39.2823H52.6733C52.6647 39.2948 52.6562 39.2987 52.6476 39.3073C52.6305 39.3206 52.6228 39.3417 52.6096 39.3581C52.5805 39.4191 52.5661 39.4861 52.5676 39.5536C52.5676 39.6006 52.58 39.6217 52.5847 39.617C52.5762 39.6256 52.6437 39.8594 52.7191 40.1519C52.7409 40.2246 52.7579 40.2966 52.7704 40.3599C52.7743 40.3943 52.7828 40.4194 52.7828 40.4491V40.5296C52.7759 40.5718 52.7759 40.6149 52.7828 40.6571C52.7867 40.6868 52.7952 40.6993 52.7952 40.6993V40.7291C52.7952 40.7377 52.7952 40.751 52.8038 40.7635C52.8084 40.7779 52.8142 40.7921 52.8209 40.8057C52.8248 40.8229 52.8372 40.8401 52.8457 40.8565C52.8535 40.8732 52.8633 40.8915 52.8753 40.9113C52.9009 40.9504 52.9258 40.9973 52.9599 41.0395C53.0866 41.2178 53.2715 41.4462 53.4828 41.6847C53.6933 41.9217 53.8914 42.1258 54.0437 42.2533C54.119 42.3166 54.1827 42.3628 54.2286 42.3886C54.2418 42.3933 54.2503 42.4019 54.2581 42.4058C54.2664 42.4068 54.2749 42.4097 54.2837 42.4144H54.3047C54.3047 42.4222 54.3638 42.4488 54.4733 42.4738C54.5277 42.4863 54.596 42.5035 54.6714 42.5121L54.798 42.5246H54.8913L54.9122 42.5121H54.92C54.9285 42.4996 54.9332 42.491 54.9417 42.4863C54.988 42.4239 55.0222 42.3534 55.0427 42.2783C55.0552 42.2361 55.0676 42.1938 55.0723 42.143V42.0961C55.0723 42.0789 55.0723 42.075 55.0684 42.0625C55.0677 42.0408 55.0649 42.0193 55.0598 41.9983C55.0342 41.8286 55.0086 41.6417 54.9588 41.4509C54.9456 41.404 54.9332 41.357 54.9076 41.307C54.9076 41.2984 54.9037 41.2984 54.8998 41.2851L54.8913 41.2726L54.8742 41.2476C54.8617 41.2304 54.8485 41.2085 54.8361 41.192C54.8105 41.1584 54.7856 41.1201 54.76 41.0857C54.7347 41.0507 54.708 41.0168 54.6799 40.984C54.5722 40.8474 54.4598 40.7087 54.3428 40.568C54.0315 40.1951 53.7066 39.8341 53.3686 39.4856C53.3462 39.4614 53.3223 39.4387 53.2971 39.4176C53.2715 39.3965 53.2505 39.3706 53.2256 39.3542C53.182 39.3138 53.1322 39.2807 53.078 39.2565C53.0648 39.2565 53.0524 39.2486 53.0353 39.2486H52.9343C52.91 39.2481 52.8874 39.2494 52.8667 39.2526L52.8753 39.2354Z" fill="#FFF5E6"/>
<path d="M74.3101 34.7573C74.3435 34.719 74.3723 34.6728 74.4065 34.6298C74.4341 34.586 74.4595 34.5409 74.4826 34.4945C74.5712 34.3201 74.6597 34.1379 74.7522 33.9596C74.9334 33.5946 75.1147 33.2166 75.296 32.8256C75.6635 32.0451 76.0006 31.2983 76.2873 30.6023C76.4302 30.2543 76.5569 29.9234 76.6586 29.5966C76.6835 29.5199 76.7006 29.4261 76.7177 29.3463C76.7301 29.2603 76.7387 29.1891 76.7425 29.1039C76.755 28.9428 76.755 28.7942 76.755 28.6503C76.7508 28.3604 76.727 28.1028 76.6835 27.8776C76.6665 27.7702 76.6384 27.6648 76.5996 27.5632C76.5778 27.5163 76.5608 27.4694 76.5188 27.4225C76.4939 27.3974 76.4815 27.3935 76.4598 27.381C76.4434 27.3677 76.4264 27.3591 76.4093 27.3466C76.3031 27.2797 76.188 27.2284 76.0674 27.1941C75.9835 27.1769 75.933 27.1894 75.9369 27.1941C75.9206 27.1941 75.9035 27.1941 75.8903 27.2019C75.8903 27.198 75.7854 27.2277 75.6168 27.3169C75.3737 27.4387 75.1444 27.5868 74.9332 27.7587C74.6146 28.012 74.3422 28.3193 74.1283 28.6667C73.9007 29.0616 73.6607 29.4941 73.4035 29.9532C72.897 30.8697 72.4542 31.7057 72.159 32.3251C72.0393 32.5698 71.9325 32.8207 71.8389 33.0767C71.7713 33.2589 71.7674 33.3699 71.7798 33.3699C71.7627 33.3699 71.7332 33.5475 71.7721 33.8665C71.7876 34.0276 71.8265 34.2184 71.8808 34.439C71.9098 34.5578 71.948 34.6742 71.995 34.787C72.0199 34.8464 72.0455 34.9106 72.0789 34.9747C72.096 35.0075 72.1178 35.0373 72.1333 35.0717C72.1597 35.1014 72.1846 35.1397 72.2141 35.1655C72.3237 35.275 72.4627 35.3563 72.615 35.4197C72.7665 35.4791 72.9312 35.526 73.1246 35.5174C73.1505 35.5175 73.1762 35.5133 73.2008 35.5049C73.2264 35.4963 73.2598 35.4877 73.2769 35.4791C73.315 35.4666 73.3608 35.4408 73.3989 35.4244C73.4797 35.3853 73.5584 35.3428 73.635 35.2969C73.7904 35.203 73.9473 35.0975 74.0949 34.97C74.1664 34.9059 74.2425 34.8378 74.3055 34.7573H74.3101Z" fill="#FFF5E6"/>
<path d="M54.4135 8.34913C54.443 8.3022 54.464 8.24746 54.4896 8.19585C54.5106 8.14318 54.5288 8.0894 54.544 8.03474C54.603 7.83037 54.6621 7.62391 54.7211 7.41536C54.8392 6.99462 54.9534 6.55746 55.0707 6.10778C55.3038 5.20843 55.5097 4.35052 55.6744 3.55675C55.7544 3.16181 55.8259 2.78409 55.8639 2.41965C55.8763 2.3305 55.8763 2.23196 55.8763 2.1389C55.8763 2.04583 55.8686 1.96919 55.8554 1.88082C55.8061 1.44258 55.7043 1.01194 55.5524 0.598265C55.511 0.489371 55.4601 0.384419 55.4001 0.284665C55.3667 0.237742 55.3457 0.190819 55.2867 0.152499C55.2564 0.131384 55.2401 0.127474 55.2191 0.118871L55.1554 0.0930635C55.0314 0.0424046 54.9004 0.0110248 54.767 0C54.6753 0 54.624 0.0211153 54.6287 0.0297178C54.6123 0.0329007 54.5966 0.0387098 54.5821 0.0469228C54.5821 0.0422305 54.4764 0.0977558 54.3125 0.220537C54.0819 0.400738 53.8686 0.602349 53.6755 0.822713C53.4346 1.10425 53.1782 1.47729 53.005 1.94886C52.845 2.41027 52.6717 2.91625 52.4954 3.45039C52.1411 4.52023 51.8412 5.49231 51.6563 6.20945C51.5631 6.56606 51.4955 6.85855 51.466 7.06735C51.4326 7.27068 51.4489 7.39425 51.4621 7.38956C51.445 7.38956 51.445 7.58507 51.5507 7.91587C51.6534 8.24188 51.795 8.55411 51.9725 8.84573C52.0103 8.90464 52.0523 8.96538 52.0984 9.02794C52.1228 9.05968 52.1495 9.08949 52.1784 9.1171C52.2079 9.1429 52.246 9.17653 52.2794 9.19765C52.4192 9.29149 52.5832 9.35093 52.7525 9.38456C52.925 9.41818 53.106 9.43539 53.3126 9.38456C53.3375 9.37674 53.3644 9.36683 53.3934 9.35484C53.4179 9.34332 53.4418 9.33053 53.4649 9.31652C53.503 9.29149 53.5488 9.26178 53.583 9.23206C53.6597 9.17367 53.734 9.11267 53.806 9.04906C53.9531 8.92237 54.0937 8.77665 54.2278 8.61189C54.2915 8.52743 54.3544 8.44219 54.4096 8.34443L54.4135 8.34913Z" fill="#FFF5E6"/>
<path d="M7.0977 62.4026L4.51302 59.3088H0.0809326L4.7321 64.9537V80.3694H8.21951V63.8627L7.0977 62.4026Z" fill="#FFF5E6"/>
<path d="M21.5686 63.3537C20.2402 60.8066 17.5832 59.3418 14.5565 59.3418C11.5298 59.3418 8.91016 60.9685 7.66638 63.557L9.26054 65.5137C10.0452 63.6931 11.8242 62.5982 13.9746 62.5982C16.125 62.5982 19.0803 64.6011 19.0803 67.7339V80.3358H22.6104V67.7339C22.6104 67.0888 22.539 66.2527 22.2989 65.3057C22.1244 64.629 21.8809 63.9723 21.5725 63.3459L21.5686 63.3537Z" fill="#FFF5E6"/>
<path d="M35.2945 63.2958C33.9661 60.7487 31.3091 59.2839 28.2824 59.2839C25.2557 59.2839 22.6361 60.9106 21.3923 63.4992L22.9864 65.4558C23.7711 63.6352 25.5501 62.5404 27.7005 62.5404C29.8509 62.5404 32.8062 64.5432 32.8062 67.6761V80.278H36.3355V67.6761C36.3355 67.0309 36.2641 66.1941 36.024 65.2478C35.8498 64.5709 35.6066 63.9139 35.2984 63.2872L35.2945 63.2958Z" fill="#FFF5E6"/>
<path d="M56.3456 59.2495V76.6555L59.234 80.425H59.6559V59.2495H56.3456Z" fill="#FFF5E6"/>
<path d="M47.8202 59.2495C41.9974 59.2495 37.2787 63.9989 37.2787 69.8603C37.2787 75.7218 41.9974 80.4711 47.8209 80.4711C53.6429 80.4711 58.3616 75.7218 58.3616 69.8603C58.3616 63.9989 53.639 59.2495 47.8202 59.2495ZM47.8202 77.0724C43.8689 77.0724 40.6566 73.837 40.6566 69.8603C40.6566 65.8836 43.8697 62.6491 47.8202 62.6491C51.7714 62.6491 54.9837 65.8875 54.9837 69.8603C54.9837 73.8331 51.7675 77.0716 47.8209 77.0716" fill="#FFF5E6"/>
<path d="M63.6241 53.5281V56.6602H67.2755V53.5281H63.6241ZM63.663 59.2495V80.4289H67.1916V59.2495H63.663Z" fill="#FFF5E6"/>
<path d="M94.2137 63.3537C92.886 60.8065 90.2291 59.3425 87.2016 59.3425C84.1749 59.3425 81.556 60.9684 80.3123 63.5578L81.9064 65.5137C82.6903 63.6931 84.4693 62.5982 86.6197 62.5982C88.7701 62.5982 91.7262 64.6018 91.7262 67.7339V80.3358H95.2516V67.7339C95.2516 67.0887 95.1794 66.2527 94.9393 65.3056C94.7651 64.6287 94.5219 63.9717 94.2137 63.345V63.3537Z" fill="#FFF5E6"/>
<path d="M79.7436 62.4034L77.159 59.3088H72.7269L77.378 64.9537V80.3701H80.8647V63.8635L79.7436 62.4034Z" fill="#FFF5E6"/>
<path d="M107.934 63.2958C106.606 60.7487 103.95 59.2839 100.922 59.2839C97.8946 59.2839 95.2757 60.9106 94.0319 63.4992L95.6261 65.4558C96.4099 63.6352 98.1898 62.5404 100.34 62.5404C102.491 62.5404 105.446 64.5432 105.446 67.6761V80.278H108.971V67.6761C108.971 67.0309 108.899 66.1941 108.659 65.2478C108.457 64.458 108.187 63.801 107.934 63.2872V63.2958Z" fill="#FFF5E6"/>
<path d="M128.992 59.2495V76.6555L131.88 80.425H132.302V59.2495H128.992Z" fill="#FFF5E6"/>
<path d="M120.468 59.2495C114.644 59.2495 109.926 63.9989 109.926 69.8603C109.926 75.7218 114.644 80.4711 120.468 80.4711C126.29 80.4711 131.008 75.7218 131.008 69.8603C131.008 63.9989 126.286 59.2495 120.468 59.2495ZM120.468 77.0724C116.516 77.0724 113.303 73.837 113.303 69.8603C113.303 65.8836 116.516 62.6491 120.468 62.6491C124.419 62.6491 127.631 65.8875 127.631 69.8603C127.631 73.8331 124.414 77.0724 120.468 77.0724Z" fill="#FFF5E6"/>
<path d="M136.267 53.5271V56.66H139.919V53.5271H136.267ZM136.305 59.2486V80.4287H139.834V59.2486H136.305Z" fill="#FFF5E6"/>
<path d="M59.2892 101.996C60.9377 101.712 62.3928 101.211 63.649 100.502L63.1223 99.7673C61.7395 100.451 60.3349 100.884 58.9225 101.07L59.2892 102V101.996Z" fill="#FFF5E6"/>
<path d="M65.0381 99.8893C64.6367 100.004 64.2333 100.119 63.8277 100.233C64.0002 100.178 64.1983 100.097 64.4096 99.9784C64.5225 99.9146 64.6322 99.8452 64.7382 99.7704C65.569 99.1839 66.2311 98.5486 66.7247 97.8646L66.3324 97.5338L66.5771 97.6784L67.1714 98.0264L67.5 97.4618L67.138 97.2452L66.2819 96.74H66.2733C66.2733 96.7447 65.9735 97.2577 65.9735 97.2577H62.8069C62.9625 97.0633 63.1077 96.8607 63.242 96.6508L62.3431 96.3748C61.7573 97.3343 61.0449 98.0045 59.3242 98.8069L59.3879 99.8596C60.4677 99.3676 61.2811 98.8538 61.8374 98.3275C62.1904 98.8717 62.6255 99.3572 63.127 99.7665L63.9582 100.326C65.0345 101.006 66.589 101.455 68.6218 101.672L68.2256 100.599C66.6191 100.56 66.041 100.284 65.042 99.8893H65.0381ZM62.664 98.0006H65.5268C65.0511 98.5084 64.5075 98.9469 63.9116 99.3035C63.4478 99.0235 63.0345 98.5903 62.664 98.0006Z" fill="#FFF5E6"/>
<path d="M68.4781 95.488H64.0002V94.745H67.0486V93.8621H64.0002V93.1191H67.8799L67.1924 92.2362H64.0002V91.9265L64.6326 91.6552L64.3762 91.0569L64.0002 91.218H63.9536C63.967 91.2175 63.9784 91.2188 63.9877 91.2219L63.0772 91.6168V92.2409H59.1975V93.1238H63.0772V93.8668H60.0288V94.7489H63.0772V95.4919H59.1431L58.5993 96.3748H68.4773L68.4781 95.488Z" fill="#FFF5E6"/>
<path d="M72.0743 101.996C73.7228 101.712 75.1779 101.211 76.4341 100.502L75.9074 99.7673C74.5245 100.451 73.1199 100.884 71.7076 101.07L72.0743 102V101.996Z" fill="#FFF5E6"/>
<path d="M77.8201 99.8893L76.6136 100.233C76.816 100.169 77.0112 100.083 77.1963 99.9784C77.3092 99.9146 77.4188 99.8452 77.5249 99.7704C78.3551 99.1839 79.017 98.5486 79.5106 97.8646L79.1144 97.5338L79.3591 97.6784L79.9534 98.0264L80.282 97.4618L79.92 97.2452L79.0639 96.74H79.0553C79.0553 96.7447 78.7562 97.2577 78.7562 97.2577H75.5897C75.7536 97.0497 75.9012 96.8463 76.0239 96.6508L75.1251 96.3748C74.5393 97.3343 73.8269 98.0045 72.1061 98.8069L72.1698 99.8596C73.2497 99.3676 74.0631 98.8538 74.6193 98.3275C74.9726 98.8718 75.408 99.3572 75.9097 99.7665L76.741 100.326C77.8162 101.006 79.3705 101.455 81.4038 101.672L81.0076 100.599C79.401 100.56 78.823 100.284 77.824 99.8893H77.8201ZM75.4459 98.0006H78.3087C77.8341 98.5091 77.2906 98.9477 76.6944 99.3035C76.2298 99.0235 75.8165 98.5903 75.4459 98.0006Z" fill="#FFF5E6"/>
<path d="M81.2616 95.488H76.7837V94.745H79.8321V93.8621H76.7837V93.1191H80.6634L79.9759 92.2362H76.7837V91.9265L77.4168 91.6552L77.1597 91.0569L76.7837 91.218H76.7371C76.7505 91.2175 76.7619 91.2188 76.7712 91.2219L75.8607 91.6168V92.2409H71.981V93.1238H75.86V93.8668H72.8123V94.7489H75.8607V95.4919H71.9266L71.3828 96.3748H81.2616V95.488Z" fill="#FFF5E6"/>
</g>
<defs>
<clipPath id="clip0_1673_849">
<rect width="140" height="102" fill="white"/>
</clipPath>
</defs>
</svg>
