<svg width="199" height="61" viewBox="0 0 199 61" fill="none" xmlns="http://www.w3.org/2000/svg">
<g opacity="0.9">
<mask id="mask0_1673_807" style="mask-type:luminance" maskUnits="userSpaceOnUse" x="0" y="0" width="199" height="61">
<path d="M199 0H0V60.2478H199V0Z" fill="white"/>
</mask>
<g mask="url(#mask0_1673_807)">
<mask id="mask1_1673_807" style="mask-type:luminance" maskUnits="userSpaceOnUse" x="3" y="0" width="188" height="60">
<path d="M190.237 0.876709H3.6521V59.2989H190.237V0.876709Z" fill="white"/>
</mask>
<g mask="url(#mask1_1673_807)">
<path d="M188.297 52.3958H151.56V53.5459H188.297V52.3958Z" fill="#FFF5E6"/>
<path d="M14.7639 21.2813H14.8122L14.7639 21.3273V50.2394L5.57962 45.7084V16.7732C6.73975 17.3943 13.4346 20.6374 14.7639 21.3044V21.2813Z" fill="#FFF5E6"/>
<path d="M44.2511 53.8691L33.1333 59.3893V41.0575L44.2511 35.7214V53.8691Z" fill="#FFF5E6"/>
<path d="M44.2617 24.8877V35.8132L33.1439 41.1494V59.274L22.026 53.7769V24.8877L33.1439 30.3619L44.2617 24.8877Z" fill="#FFF5E6"/>
<path d="M60.6924 27.9055V45.7082L51.5082 50.2393V32.3217L60.6924 27.9055Z" fill="#FFF5E6"/>
<path d="M60.6924 16.7732V27.9057L51.5082 32.3217V21.3044L60.6924 16.7732Z" fill="#FFF5E6"/>
<path d="M5.57962 19.4824L14.7639 23.9217V32.3629L5.57962 27.9469V19.4824Z" fill="#FFF5E6"/>
<path d="M44.2563 27.4637V35.8361C44.1596 35.8821 33.2594 41.1262 33.1626 41.1721L22.2624 35.905V27.4407L33.2594 32.7538L44.2563 27.4407V27.4637Z" fill="#0D0D0D"/>
<path d="M60.6924 19.4824V27.9007L51.5082 32.3169V23.9217L60.6924 19.4824Z" fill="#0D0D0D"/>
<path d="M14.7639 21.2741H14.8122L14.7639 21.2972V50.1862L5.57962 45.6551V17.6631H7.41648L14.7639 21.2741Z" fill="#FFF5E6"/>
<path d="M33.1439 30.1976V59.4317L22.026 53.9345V24.7234L33.1439 30.1976Z" fill="#FFF5E6"/>
<path d="M5.57962 19.4824L14.7639 23.9217V32.3629L5.57962 27.9469V19.4824Z" fill="#0D0D0D"/>
<path d="M33.1439 32.7594V41.2008L33.0472 41.2468L22.026 35.9336V27.3772L33.1439 32.7594Z" fill="#0D0D0D"/>
<path d="M44.0629 24.795L33.2592 19.0218C32.9934 19.1597 22.4798 24.749 22.2382 24.8869V26.7271L33.235 32.1322L44.2321 26.7271V24.91L44.0388 24.795H44.0629ZM50.3226 9.77539C49.4285 12.3055 46.2622 14.6745 41.0176 15.9166C41.1384 15.9857 51.3861 21.2758 51.4828 21.3448V23.2079C52.8362 22.5408 61.4888 18.3087 62.6006 17.7567V15.8247L50.2985 9.77539H50.3226ZM15.8816 9.82139L3.65207 15.8247V17.7797C4.71551 18.3087 13.4647 22.5868 14.7698 23.2309V21.3908C14.9633 21.2758 24.8 16.1696 24.9935 16.0777C19.7004 15.0426 16.655 12.8115 15.8816 9.82139ZM33.1384 1.40308L26.6127 4.6232C29.6338 6.34826 31.8333 9.36138 33.1384 11.5695C34.4435 9.36138 36.6429 6.32525 39.6157 4.6002L33.1384 1.40308Z" fill="#FFF5E6"/>
<path d="M45.0788 9.11052C44.4987 11.7556 41.7192 12.6987 37.7556 13.1587C38.7947 10.9506 40.8009 7.73047 43.2903 7.73047C44.3296 7.75348 45.0788 8.32849 45.0788 9.11052Z" fill="#FFF5E6"/>
<path d="M28.5721 13.1856C24.6083 12.7486 21.829 11.7826 21.2489 9.13745C21.2489 8.37842 21.974 7.7804 23.0374 7.7804C25.5268 7.7574 27.4845 10.9545 28.5721 13.1856Z" fill="#FFF5E6"/>
<path d="M3.65207 15.8022L14.9391 21.2535C14.915 21.2535 14.8182 21.2995 14.7698 21.3224V30.6379C13.4164 29.9938 4.76385 25.7846 3.65207 25.2557V15.8022Z" fill="#FFF5E6"/>
<path d="M44.063 24.7961L44.2563 24.911V34.0424C44.1596 34.0884 33.2594 39.3326 33.1626 39.3786L22.2624 34.0884V24.911L22.4557 24.7961L33.2594 30.0173L44.0872 24.7961H44.063Z" fill="#FFF5E6"/>
<path d="M62.6281 15.8022V25.2326C61.5405 25.7386 52.8154 29.9248 51.5103 30.5688V21.2764L51.3895 21.2305L62.6281 15.8022Z" fill="#FFF5E6"/>
<path d="M14.8322 21.331L14.7744 21.3599V21.3022L14.8322 21.331Z" fill="#FFF5E6"/>
<path d="M117.174 56.148C116.28 56.148 115.362 55.826 114.709 55.2279L115.579 54.2389C116.764 55.55 119.76 54.5839 117.199 53.5259C116.764 53.3418 116.038 53.1119 115.676 52.8129C113.211 50.4438 117.658 48.3047 119.519 50.3748L118.745 51.2948C117.561 50.1218 115.096 51.2948 117.513 52.1229C120.582 52.7209 120.365 56.125 117.174 56.171V56.148ZM122.081 56.079V51.0187H120.147V49.6388H125.464V51.0187H123.531V56.079H122.081ZM128.8 56.148C124.739 56.2859 124.715 49.3627 128.8 49.5238C132.884 49.3627 132.836 56.2859 128.8 56.148ZM128.8 54.906C130.806 54.906 130.854 50.7657 128.8 50.7888C126.745 50.7888 126.794 54.906 128.8 54.906ZM133.199 56.079V49.6388C134.093 49.6848 136.147 49.5238 136.945 49.8228C138.685 50.2368 138.661 52.9279 137.041 53.5028L138.588 56.079H136.703L135.47 53.7789H134.673V56.079H133.223H133.199ZM134.649 52.6289C135.47 52.6289 136.751 52.7209 136.703 51.6629C136.727 50.6047 135.422 50.8117 134.649 50.7888V52.6289ZM139.482 56.079V49.6388H143.591V50.7888H140.933V52.1689H143.108V53.3189H140.933V54.9289H143.833V56.079H139.482Z" fill="#FFF5E6"/>
<path d="M106.594 53.4573H69.857V54.6073H106.594V53.4573Z" fill="#FFF5E6"/>
<path d="M74.4728 20.4274V4.32683H69.1556V0.876709H83.6572V4.32683H78.8232V20.4274H74.4728ZM85.8323 20.4274V0.876709H90.1829V9.38703H97.917V0.876709H102.267V20.4274H97.917V12.8372H90.1829V20.4274H85.8323ZM105.893 20.4274V0.876709H119.669V4.32683H110.243V8.927H119.186V12.3771H110.243V16.7473H119.669V20.4274H105.893Z" fill="#FFF5E6"/>
<path d="M70.6006 43.8887V24.338C73.2109 24.4991 79.9299 23.832 82.2018 25.0511C86.939 26.845 86.8906 34.2973 82.1776 36.0914L86.8665 43.8887H82.2743L77.1021 35.1944L79.9057 36.7585H74.9509V43.8887H70.6006ZM74.9509 33.3083C77.1745 33.2853 81.5251 33.9294 81.4283 30.6863C81.5493 27.4201 77.1987 28.0641 74.9509 28.0181V33.3083ZM88.9691 43.8887V24.568H102.745V28.0181H93.3195V32.3883H102.262V36.0684H93.3195V40.4386H102.745V43.8887H88.9691ZM109.029 43.8887L103.664 24.338H108.256L112.292 40.6686H111.06L115.314 24.338H119.712L123.966 40.6686H122.733L126.77 24.338H131.362L125.996 43.8887H121.066L116.788 28.2482H118.214L113.936 43.8887H109.005H109.029ZM130.806 43.8887L137.767 24.338H143.446L150.407 43.8887H145.646L144.292 39.9785H136.921L135.567 43.8887H130.83H130.806ZM138.032 36.5284H143.156L140.014 27.3281H141.174L138.008 36.5284H138.032ZM152.292 43.8887V24.338C154.903 24.4991 161.622 23.832 163.893 25.0511C168.63 26.845 168.582 34.2973 163.87 36.0914L168.559 43.8887H163.966L158.794 35.1944L161.597 36.7585H156.643V43.8887H152.292ZM156.643 33.3083C158.866 33.2853 163.216 33.9294 163.12 30.6863C163.241 27.4201 158.891 28.0641 156.643 28.0181V33.3083ZM170.66 43.8887V24.338C174.141 24.4529 180.208 23.809 183.156 25.6031C186.492 27.3051 188.329 30.4562 188.304 34.1134C188.304 37.7705 186.492 40.9446 183.156 42.6467C180.257 44.4407 174.116 43.7967 170.66 43.9118V43.8887ZM175.011 40.4386C179.82 40.8526 184.051 39.4265 184.074 34.2053C184.074 28.9612 179.772 27.6041 175.011 28.0181V40.4386Z" fill="#FFF5E6"/>
</g>
</g>
</g>
</svg>
