<svg width="177" height="62" viewBox="0 0 177 62" fill="none" xmlns="http://www.w3.org/2000/svg">
<g opacity="0.9" clip-path="url(#clip0_1673_840)">
<path d="M48.0015 15.3606L45.7964 0.867818C45.6598 0.026809 44.9962 -0.24701 44.3132 0.241949L32.5457 8.80852C32.0384 9.18012 32.1359 9.96246 32.7214 10.1972L35.473 11.2924C35.8828 11.4489 36.0779 11.9379 35.9023 12.3486L20.9929 47.9252C20.9149 48.1208 20.7392 48.2186 20.5246 48.2186C20.3294 48.2186 20.1538 48.1012 20.0562 47.9252L8.81573 31.77C8.73767 31.6135 8.60107 31.5157 8.42543 31.5157L0.443852 31.9851C0.287733 31.9851 0.170645 32.0438 0.0730707 32.1807C-0.00498875 32.3176 -0.0245045 32.4545 0.0340402 32.5915L19.2367 60.9315C19.3147 61.088 19.4513 61.1858 19.6269 61.1858H23.2372C23.4128 61.1858 23.5689 61.088 23.6274 60.9315L43.0057 15.5366C43.1814 15.1454 43.6302 14.9498 44.0205 15.1063L46.9087 16.2602C47.4941 16.4558 48.0991 15.9669 48.0015 15.3606Z" fill="#FFF5E6"/>
<path d="M30.5162 18.6073L27.9988 17.6881C27.6475 17.5511 27.2572 17.7272 27.1206 18.0792L17.695 39.1044L12.2113 32.7089L20.1148 15.5366C20.2514 15.1846 20.0757 14.7739 19.705 14.637L17.3047 13.7568C16.7973 13.5808 16.6997 12.8963 17.129 12.5638L27.9598 4.21235C28.3696 3.89941 28.955 4.13411 29.0526 4.64263L31.4334 17.8445C31.5115 18.3726 31.0041 18.8029 30.5162 18.6073Z" fill="#FFF5E6"/>
<path d="M34.2045 61.8508C33.6776 61.8508 33.2483 61.7335 32.936 61.4792C32.6238 61.2445 32.4286 60.912 32.3506 60.5013C32.292 60.0906 32.3701 59.6407 32.5848 59.1322L41.2689 39.8477C41.5616 39.2023 41.8934 38.7524 42.3032 38.4786C42.713 38.2048 43.1813 38.0679 43.7082 38.0679C44.2156 38.0679 44.6645 38.2048 45.0743 38.4786C45.4841 38.7524 45.8159 39.2023 46.1086 39.8477L54.8317 59.1322C55.0659 59.6407 55.1635 60.0906 55.0854 60.5209C55.0269 60.9316 54.8317 61.2641 54.5195 61.4988C54.2072 61.7335 53.7974 61.8508 53.3096 61.8508C52.7046 61.8508 52.2167 61.6944 51.885 61.401C51.5532 61.1076 51.241 60.6578 50.9873 60.0319L48.8407 55.0445L50.6165 56.1985H36.7219L38.4978 55.0445L36.3902 60.0319C36.0974 60.6773 35.8047 61.1272 35.4925 61.4205C35.1998 61.7139 34.7704 61.8508 34.2045 61.8508ZM43.6497 42.9183L39.0442 53.9101L38.1855 52.854H49.1724L48.3528 53.9101L43.7082 42.9183H43.6497Z" fill="#FFF5E6"/>
<path d="M59.769 61.8509C59.125 61.8509 58.6371 61.6748 58.3054 61.3228C57.9736 60.9707 57.798 60.4622 57.798 59.7972V40.1802C57.798 39.4957 57.9736 38.9676 58.3054 38.6155C58.6371 38.2439 59.086 38.0679 59.6324 38.0679C60.1398 38.0679 60.5106 38.1657 60.7643 38.3417C61.018 38.5373 61.3107 38.8502 61.6619 39.2805L74.2686 55.6704H73.4099V40.0629C73.4099 39.4174 73.5855 38.9285 73.9173 38.5764C74.249 38.2244 74.7369 38.0483 75.3809 38.0483C76.0249 38.0483 76.4933 38.2244 76.825 38.5764C77.1568 38.9285 77.3129 39.4174 77.3129 40.0629V59.8559C77.3129 60.4622 77.1568 60.9512 76.8445 61.3032C76.5323 61.6553 76.1225 61.8313 75.5956 61.8313C75.0882 61.8313 74.6979 61.7335 74.3857 61.5379C74.0929 61.3423 73.7612 61.0294 73.4099 60.5796L60.8423 44.1897H61.6619V59.7972C61.6619 60.4622 61.5058 60.9707 61.1741 61.3228C60.8814 61.6748 60.3935 61.8509 59.769 61.8509Z" fill="#FFF5E6"/>
<path d="M81.9769 61.8508C81.45 61.8508 81.0207 61.7335 80.7085 61.4792C80.3962 61.2445 80.2011 60.912 80.123 60.5013C80.0645 60.0906 80.1425 59.6407 80.3572 59.1322L89.0413 39.8477C89.3341 39.2023 89.6658 38.7524 90.0756 38.4786C90.4854 38.2048 90.9538 38.0679 91.4807 38.0679C91.9881 38.0679 92.4369 38.2048 92.8467 38.4786C93.2565 38.7524 93.5883 39.2023 93.881 39.8477L102.604 59.1322C102.838 59.6407 102.936 60.0906 102.858 60.5209C102.799 60.9316 102.604 61.2641 102.292 61.4988C101.98 61.7335 101.57 61.8508 101.082 61.8508C100.477 61.8508 99.9892 61.6944 99.6574 61.401C99.3257 61.1076 99.0134 60.6578 98.7597 60.0319L96.6131 55.0445L98.389 56.1985H84.5139L86.2897 55.0445L84.1821 60.0319C83.8894 60.6773 83.5967 61.1272 83.2844 61.4205C82.9917 61.7139 82.5429 61.8508 81.9769 61.8508ZM91.4221 42.9183L86.8166 53.9101L85.958 52.854H96.9449L96.1252 53.9101L91.4807 42.9183H91.4221Z" fill="#FFF5E6"/>
<path d="M107.542 61.8509C106.898 61.8509 106.41 61.6748 106.078 61.3228C105.746 60.9707 105.571 60.4622 105.571 59.7972V40.1802C105.571 39.4957 105.746 38.9676 106.078 38.6155C106.41 38.2439 106.859 38.0679 107.405 38.0679C107.912 38.0679 108.283 38.1657 108.537 38.3417C108.791 38.5373 109.083 38.8502 109.435 39.2805L122.041 55.6704H121.202V40.0629C121.202 39.4174 121.378 38.9285 121.709 38.5764C122.041 38.2244 122.529 38.0483 123.173 38.0483C123.817 38.0483 124.285 38.2244 124.617 38.5764C124.949 38.9285 125.105 39.4174 125.105 40.0629V59.8559C125.105 60.4622 124.949 60.9512 124.637 61.3032C124.324 61.6553 123.915 61.8313 123.388 61.8313C122.88 61.8313 122.49 61.7335 122.178 61.5379C121.866 61.3423 121.553 61.0294 121.202 60.5796L108.634 44.1897H109.454V59.7972C109.454 60.4622 109.298 60.9707 108.966 61.3228C108.674 61.6748 108.186 61.8509 107.542 61.8509Z" fill="#FFF5E6"/>
<path d="M129.769 61.8508C129.242 61.8508 128.813 61.7335 128.5 61.4792C128.188 61.2445 127.993 60.912 127.915 60.5013C127.856 60.0906 127.935 59.6407 128.149 59.1322L136.833 39.8477C137.126 39.2023 137.458 38.7524 137.868 38.4786C138.277 38.2048 138.746 38.0679 139.273 38.0679C139.78 38.0679 140.229 38.2048 140.639 38.4786C141.049 38.7524 141.38 39.2023 141.673 39.8477L150.396 59.1322C150.63 59.6407 150.728 60.0906 150.65 60.5209C150.591 60.9316 150.396 61.2641 150.084 61.4988C149.772 61.7335 149.362 61.8508 148.874 61.8508C148.269 61.8508 147.781 61.6944 147.449 61.401C147.118 61.1076 146.805 60.6578 146.552 60.0319L144.405 55.0445L146.181 56.1985H132.286L134.062 55.0445L131.955 60.0319C131.662 60.6773 131.369 61.1272 131.057 61.4205C130.764 61.7139 130.335 61.8508 129.769 61.8508ZM139.214 42.9183L134.609 53.9101L133.75 52.854H144.737L143.917 53.9101L139.273 42.9183H139.214Z" fill="#FFF5E6"/>
<path d="M155.333 61.8508C154.728 61.8508 154.241 61.6748 153.909 61.3227C153.577 60.9707 153.421 60.4817 153.421 59.8754V40.0628C153.421 39.4174 153.597 38.9284 153.948 38.5959C154.299 38.2634 154.787 38.0874 155.392 38.0874C155.938 38.0874 156.368 38.1852 156.699 38.4003C157.012 38.6155 157.304 38.9675 157.578 39.476L165.715 54.5555H164.662L172.799 39.476C173.053 38.9675 173.346 38.6155 173.658 38.4003C173.97 38.1852 174.399 38.0874 174.946 38.0874C175.551 38.0874 176.039 38.2634 176.37 38.5959C176.702 38.9284 176.858 39.4174 176.858 40.0628V59.8754C176.858 60.4817 176.702 60.9707 176.39 61.3227C176.078 61.6748 175.59 61.8508 174.965 61.8508C174.36 61.8508 173.873 61.6748 173.541 61.3227C173.209 60.9707 173.053 60.4817 173.053 59.8754V44.6003H173.775L166.867 57.235C166.652 57.6066 166.418 57.8805 166.184 58.0565C165.95 58.2325 165.618 58.3107 165.188 58.3107C164.779 58.3107 164.427 58.213 164.174 58.0369C163.92 57.8413 163.686 57.5871 163.491 57.235L156.504 44.5612H157.285V59.8559C157.285 60.4622 157.129 60.9511 156.817 61.3032C156.446 61.6748 155.958 61.8508 155.333 61.8508Z" fill="#FFF5E6"/>
</g>
<defs>
<clipPath id="clip0_1673_840">
<rect width="177" height="62" fill="white"/>
</clipPath>
</defs>
</svg>
